<svg id="Layer_1" data-name="Layer 1" xmlns="http://www.w3.org/2000/svg" viewBox="0 0 248.82 228.06"><defs><style>.cls-1{fill:none;stroke:#222;stroke-linecap:round;stroke-linejoin:round;stroke-width:5px;}</style></defs><title>contact-grey</title><path class="cls-1" d="M232.61,275.09s11.28-14.94,21-18.5l62.27-22.86a7.84,7.84,0,0,0-4.53-15s-52.15,14.68-59.46,12.88c-5.94-1.46-6.95-8.06-4.55-12.94,1.79-3.64,5.73-6.59,8.56-9.49l22.56-23L311.82,152a8.92,8.92,0,0,0-12.6-12.63l-56.61,56.46c-2.26,2.25-6.54-.25-7.32-2.69-1.33-4.16,3.56-8.94,5.87-12.2l8.09-11.46,19.95-28.24,17.29-24.48a9.5,9.5,0,1,0-15.51-11L241.5,147.55l-11.8,16.7c-3.91,5.53-9.83,19.48-18.85,16.09-6-2.25-1.54-13.66-1.54-13.66l28.49-67a9.5,9.5,0,0,0-17.48-7.44l-34.61,81.34s-25.32,56.78-48.37,43.72C120,207.5,117,145,77.61,169.84c0,0,34.39,25.66,40.89,73.16,2.27,16.6,10,53.5,33.36,54.59,0,0,13.75-1.75,20.5,6.25,10.22,12.11,42.67,3.09,49.49-9.23Q227.24,284.86,232.61,275.09Z" transform="translate(-75.11 -84)"/></svg>