<svg id="Layer_1" data-name="Layer 1" xmlns="http://www.w3.org/2000/svg" viewBox="0 0 373.39 256"><defs><style>.cls-1,.cls-2{fill:none;stroke:#fff;stroke-linecap:round;stroke-width:6px;}.cls-1{stroke-linejoin:round;}.cls-2{stroke-miterlimit:10;}</style></defs><title>contact-white</title><path class="cls-1" d="M166.52,319.9a46.2,46.2,0,0,0,31.57,3.86c9.44-2.26,18.38-6.14,24.36-14.08C234,294.35,238.94,273.24,259,265.87l69.88-25.65a8.8,8.8,0,0,0-5.08-16.85s-58.52,16.47-66.73,14.45c-6.67-1.64-7.8-9-5.11-14.52,2-4.09,6.43-7.4,9.61-10.65L333,143.86a9.93,9.93,0,1,0-14.12-14l-60.55,60c-3.89,4.07-9.62,8.84-15.44,5.48-4.89-2.83-2.18-9.21,1.85-15.17l31.81-43.71,19.2-27.17A10.9,10.9,0,0,0,294,94.54a10.66,10.66,0,0,0-15.42,2.13l-8.67,12.42c-14.49,20.74-29,41.42-43.17,62.41-3.29,4.89-10,12.7-16.66,8.31-4.51-3-2.39-10.86-.7-14.83l31.83-74.81a10.9,10.9,0,0,0-4.85-14,10.66,10.66,0,0,0-14.62,5.34l-38.84,91.27s-30.37,66.72-54.28,49.06a39.09,39.09,0,0,1-11-13.5c-6.75-20.23-13-36.23-21.24-43.5C92,160,83,158.69,83,158.69c-13.75-2.22-19,6.45-19.4,7,0,0-1.58,2.73,1.64,5.14a26.79,26.79,0,0,1,3.51,3.51A91.47,91.47,0,0,1,76,183.22a58,58,0,0,1,5.61,7.16,59.9,59.9,0,0,1,6.49,12.95,43,43,0,0,1,2.11,7.77c4.77,14.05,12.76,29.63,15.15,34.21-1.92,9.71-1,26.18,5.87,40.34" transform="translate(-10 -72)"/><path class="cls-2" d="M367.35,87.55a51,51,0,0,1,2.43,10.68" transform="translate(-10 -72)"/><path class="cls-2" d="M378,84.33A51,51,0,0,1,380.38,95" transform="translate(-10 -72)"/><path class="cls-2" d="M27.07,221.07a51,51,0,0,1-4.14-10.14" transform="translate(-10 -72)"/><path class="cls-2" d="M17.14,226A51,51,0,0,1,13,215.84" transform="translate(-10 -72)"/></svg>