<svg id="Layer_1" data-name="Layer 1" xmlns="http://www.w3.org/2000/svg" viewBox="0 0 955.67 448.17"><defs><style>.cls-1{fill:#fff;}.cls-2,.cls-3,.cls-5,.cls-6{fill:none;stroke-miterlimit:10;}.cls-2,.cls-3,.cls-5{stroke:#fff;}.cls-2,.cls-5,.cls-6{stroke-width:10px;}.cls-4{fill:#0638b8;}.cls-5,.cls-6{stroke-linecap:round;}.cls-6{stroke:#4768ad;}.cls-7{fill:#363433;}</style></defs><title>investors</title><path class="cls-1" d="M825.51,250.18A122.38,122.38,0,1,1,738.83,286a122,122,0,0,1,86.68-35.79m0-9.88C752.34,240.3,693,299.42,693,372.36s59.32,132.06,132.49,132.06S958,445.29,958,372.36,898.68,240.3,825.51,240.3h0Z" transform="translate(-2.33 -56.25)"/><line class="cls-2" x1="725.68" y1="165.92" x2="559.45" y2="341.04"/><line class="cls-3" x1="823.18" y1="193.93" x2="823.18" y2="438.29"/><line class="cls-3" x1="945.76" y1="316.11" x2="700.6" y2="316.11"/><line class="cls-3" x1="909.85" y1="229.72" x2="736.5" y2="402.5"/><line class="cls-3" x1="909.85" y1="402.5" x2="736.5" y2="229.72"/><ellipse class="cls-1" cx="823.18" cy="316.11" rx="14.25" ry="14.2"/><path class="cls-1" d="M698.47,437.62a5,5,0,0,1-4.48-2.81A144.92,144.92,0,0,1,720.56,271.7a145.1,145.1,0,0,1,98.94-44.39,4.94,4.94,0,1,1,.4,9.87A135.49,135.49,0,0,0,689.78,372.36a133.7,133.7,0,0,0,13.16,58.19A4.95,4.95,0,0,1,698.47,437.62Z" transform="translate(-2.33 -56.25)"/><path class="cls-1" d="M702.57,163.73a3,3,0,0,1-2.75-1.83l-20.35-49a11.12,11.12,0,0,1-.4-9.21c1.75-4.17,6.1-7.19,12.91-9a3,3,0,1,1,1.53,5.73c-4.83,1.28-7.92,3.18-8.93,5.5a5.26,5.26,0,0,0,.18,4.28l0.15,0.3,20.4,49.13A3,3,0,0,1,702.57,163.73Z" transform="translate(-2.33 -56.25)"/><path class="cls-1" d="M704.78,150.13L753,269.75l1.13,2.8,0.67,1.68,0.46,1.32c0.65,1.81,1.35,3.64,2.09,5.45,1.47,3.63,3,7.21,4.72,10.72,3.33,7,7,13.78,10.8,20.14a211,211,0,0,0,24,32.57c4,4.38,7.85,8.2,11.37,11.48,1.79,1.6,3.46,3.11,5,4.46s3.06,2.56,4.42,3.62l3.65,2.8c1.07,0.8,2,1.44,2.77,2l2.31,1.64-4,6-2.45-1.67c-0.8-.55-1.8-1.21-2.94-2l-3.88-2.87c-1.45-1.08-3-2.36-4.7-3.71s-3.46-2.92-5.36-4.57c-3.74-3.36-7.84-7.28-12.08-11.77a219.4,219.4,0,0,1-25.58-33.42c-4.09-6.53-8-13.47-11.59-20.72q-2.7-5.44-5.13-11.12c-0.81-1.89-1.59-3.8-2.33-5.77l-0.56-1.52a1.49,1.49,0,0,1,.07.19l0-.09-0.07-.17-0.15-.35-0.29-.7-1.18-2.78L693.78,154.65Z" transform="translate(-2.33 -56.25)"/><path class="cls-1" d="M664.32,93c-1,3.15-.7,6.09.77,6.58s3.51-1.67,4.55-4.82,0.7-6.09-.77-6.58S665.37,89.83,664.32,93Z" transform="translate(-2.33 -56.25)"/><path class="cls-1" d="M692.61,100.7a3.1,3.1,0,0,1-.55,0L659.54,95a3.15,3.15,0,1,1,1.09-6.21l21.61,3.78-8.75-7.8a3.16,3.16,0,1,1,4.22-4.7l17,15.16A3.15,3.15,0,0,1,692.61,100.7Z" transform="translate(-2.33 -56.25)"/><path class="cls-1" d="M645.3,69.47s-7-3.27-.62-9.69,11.89-2.1,11.89-2.1a65.87,65.87,0,0,0,7,4.82c2.23,1.11,5.33,4.51,6.2,5.74S676,72.86,676,72.86a4.07,4.07,0,0,1,1.8,1.91c0.68,1.42,1.29,9.2-7.63,10.07,0,0-1.71.41-7.24-4.63C657.13,74.9,645.3,69.47,645.3,69.47Z" transform="translate(-2.33 -56.25)"/><path class="cls-1" d="M665.09,99.55c-1.47-.48-1.81-3.43-0.77-6.58s3.08-5.31,4.55-4.82l-7.77-2.64q-2.43-.8-4.92-1.39a51.09,51.09,0,0,0-6-1.07c-2.55-.29-5.38-0.44-7.69.78a7.08,7.08,0,0,0-3.3,3.35c-0.9,2.19.42,4.32,2.27,5.48a24.06,24.06,0,0,0,5.74,2.18l4.19,1.29c1.79,0.55,3.55,1.08,5.38,1.5l4.3,1C662.37,98.93,663.79,99.12,665.09,99.55Z" transform="translate(-2.33 -56.25)"/><ellipse class="cls-4" cx="823.18" cy="316.11" rx="7.46" ry="7.43"/><path class="cls-5" d="M694.74,159.83a183.14,183.14,0,0,1-149.16,175.6" transform="translate(-2.33 -56.25)"/><path class="cls-2" d="M562.27,397.29L325,366.05" transform="translate(-2.33 -56.25)"/><path class="cls-1" d="M439.91,182.37a1.1,1.1,0,0,1-.87-0.94,2.79,2.79,0,0,1,.39-2.5c3.16-3.22,13.66-2.19,14.85-2.06,0.55,0.06,1,.93.94,1.94s-0.51,1.79-1.05,1.72c-3.07-.33-11.51-0.69-13.76,1.61A0.68,0.68,0,0,1,439.91,182.37Z" transform="translate(-2.33 -56.25)"/><path class="cls-1" d="M440.91,182.64c-0.42-.1,2.64-1.42,3.66-1.49a34,34,0,0,1,8,1.22c-1.33,0-8.65,1.53-8.65,1.53S441.24,182.72,440.91,182.64Z" transform="translate(-2.33 -56.25)"/><path class="cls-1" d="M439.91,190.32a1.1,1.1,0,0,1-.87-0.94,3.2,3.2,0,0,1,.54-2.73c3.15-2.68,13.17-3.8,14.36-3.67,0.55,0.06,1,.93.94,1.94s-0.51,1.79-1.05,1.72c-3.07-.33-10.92,1.23-13.43,3.44A0.76,0.76,0,0,1,439.91,190.32Z" transform="translate(-2.33 -56.25)"/><path class="cls-1" d="M440.91,190.83c-0.42-.1,2.64-1.84,3.66-1.91a34,34,0,0,1,8,1.22c-1.33,0-8.65,1.53-8.65,1.53S441.24,190.91,440.91,190.83Z" transform="translate(-2.33 -56.25)"/><path class="cls-1" d="M439.91,198.09a1.1,1.1,0,0,1-.87-0.94,3.19,3.19,0,0,1,.54-2.73c3.15-2.68,13.17-3.8,14.36-3.67,0.55,0.06,1,.93.94,1.94s-0.51,1.79-1.05,1.72c-3.07-.33-10.92,1.23-13.43,3.44A0.77,0.77,0,0,1,439.91,198.09Z" transform="translate(-2.33 -56.25)"/><path class="cls-1" d="M440.91,198.26c-0.42-.1,2.64-1.42,3.66-1.49a34,34,0,0,1,8,1.22c-1.33,0-8.65,1.53-8.65,1.53S441.24,198.33,440.91,198.26Z" transform="translate(-2.33 -56.25)"/><path class="cls-1" d="M439.91,205.94A1.1,1.1,0,0,1,439,205a3.19,3.19,0,0,1,.54-2.73c3.15-2.68,13.17-3.8,14.36-3.67,0.55,0.06,1,.93.94,1.94s-0.51,1.79-1.05,1.72c-3.07-.33-10.92,1.23-13.43,3.44A0.77,0.77,0,0,1,439.91,205.94Z" transform="translate(-2.33 -56.25)"/><path class="cls-1" d="M441.24,206.07c-0.67-.42,4-2.09,4-2.09s8.32-.42,9,0,0.53,1.91,0,2.65S442.18,206.66,441.24,206.07Z" transform="translate(-2.33 -56.25)"/><path class="cls-1" d="M470.33,185.65c13.63,7.78,18.71,7.53,30.36,0a156.84,156.84,0,0,1,16.59-9.21c2.24-1.09,4.46-2.2,6.75-3.19,1.78-.77,4-2,6-2.16h0.18c2.11-.12,1.65-0.49,1.12-1.07s-1.36-1.58-1.36-1.58c-3.59-4.51-11-4.88-30.85-1.67s-44,2.18-53.28,1c-12.51-1.61-11.28,6.18-11.28,6.18s8.51-2.55,26.76,6.63C464.37,182.1,467.34,183.95,470.33,185.65Z" transform="translate(-2.33 -56.25)"/><path class="cls-1" d="M536.6,331.65a3,3,0,0,1-2.75-1.84L487.94,218.73c-6.52-15.77-19.21-12.26-19.75-12.1l-0.3.07c-4.44.81-7,1.27-7.79,1.39-1,.15-1.3.51-2.37,2.08a21,21,0,0,1-1.6,2.13c-2.27,2.59-5.58,2.64-8,2.68-0.51,0-1,0-1.48.05s-0.81,0-1.32,0a13.12,13.12,0,0,0-1.65.05,3,3,0,0,1-3-5.09c1.38-.92,3.23-0.91,4.72-0.89,0.32,0,.6,0,0.81,0,0.58,0,1.21-.06,1.85-0.07,1.45,0,3.09-.05,3.63-0.66a15.9,15.9,0,0,0,1.15-1.56c1.16-1.71,2.75-4,6.38-4.61,0.73-.11,3.25-0.57,7.49-1.34,6.4-1.79,20-.81,26.76,15.58l45.91,111.08A3,3,0,0,1,536.6,331.65Zm-93-116.51h0Zm0.35-.17h0Z" transform="translate(-2.33 -56.25)"/><line class="cls-2" x1="493.62" y1="174.59" x2="558.53" y2="337.48"/><line class="cls-2" x1="495" y1="178.14" x2="315.09" y2="290.24"/><path class="cls-1" d="M147.75,250.18A122.18,122.18,0,1,1,61.07,458.75a122.18,122.18,0,0,1,86.68-208.57m0-9.88c-73.17,0-132.49,59.13-132.49,132.06S74.57,504.42,147.75,504.42s132.49-59.13,132.49-132.06S220.92,240.3,147.75,240.3h0Z" transform="translate(-2.33 -56.25)"/><line class="cls-3" x1="145.42" y1="193.93" x2="145.42" y2="438.29"/><line class="cls-3" x1="267.99" y1="316.11" x2="22.84" y2="316.11"/><line class="cls-3" x1="232.09" y1="229.72" x2="58.74" y2="402.5"/><line class="cls-3" x1="232.09" y1="402.5" x2="58.74" y2="229.72"/><path class="cls-2" d="M336.91,397.29l-189.16-24.9" transform="translate(-2.33 -56.25)"/><path class="cls-1" d="M214.75,182.37a1.1,1.1,0,0,1-.87-0.94,2.79,2.79,0,0,1,.39-2.5c3.16-3.22,13.66-2.19,14.85-2.06,0.55,0.06,1,.93.94,1.94s-0.51,1.79-1.05,1.72c-3.07-.33-11.51-0.69-13.76,1.61A0.68,0.68,0,0,1,214.75,182.37Z" transform="translate(-2.33 -56.25)"/><path class="cls-1" d="M215.75,182.64c-0.42-.1,2.64-1.42,3.66-1.49a34,34,0,0,1,8,1.22c-1.33,0-8.65,1.53-8.65,1.53S216.08,182.72,215.75,182.64Z" transform="translate(-2.33 -56.25)"/><path class="cls-1" d="M214.75,190.32a1.1,1.1,0,0,1-.87-0.94,3.2,3.2,0,0,1,.54-2.73c3.15-2.68,13.17-3.8,14.36-3.67,0.55,0.06,1,.93.94,1.94s-0.51,1.79-1.05,1.72c-3.07-.33-10.92,1.23-13.43,3.44A0.76,0.76,0,0,1,214.75,190.32Z" transform="translate(-2.33 -56.25)"/><path class="cls-1" d="M215.75,190.83c-0.42-.1,2.64-1.84,3.66-1.91a34,34,0,0,1,8,1.22c-1.33,0-8.65,1.53-8.65,1.53S216.08,190.91,215.75,190.83Z" transform="translate(-2.33 -56.25)"/><path class="cls-1" d="M214.75,198.09a1.1,1.1,0,0,1-.87-0.94,3.19,3.19,0,0,1,.54-2.73c3.15-2.68,13.17-3.8,14.36-3.67,0.55,0.06,1,.93.94,1.94s-0.51,1.79-1.05,1.72c-3.07-.33-10.92,1.23-13.43,3.44A0.77,0.77,0,0,1,214.75,198.09Z" transform="translate(-2.33 -56.25)"/><path class="cls-1" d="M215.75,198.26c-0.42-.1,2.64-1.42,3.66-1.49a34,34,0,0,1,8,1.22c-1.33,0-8.65,1.53-8.65,1.53S216.08,198.33,215.75,198.26Z" transform="translate(-2.33 -56.25)"/><path class="cls-1" d="M214.75,205.94a1.1,1.1,0,0,1-.87-0.94,3.19,3.19,0,0,1,.54-2.73c3.15-2.68,13.17-3.8,14.36-3.67,0.55,0.06,1,.93.94,1.94s-0.51,1.79-1.05,1.72c-3.07-.33-10.92,1.23-13.43,3.44A0.77,0.77,0,0,1,214.75,205.94Z" transform="translate(-2.33 -56.25)"/><path class="cls-1" d="M216.08,206.07c-0.67-.42,4-2.09,4-2.09s8.32-.42,9,0,0.53,1.91,0,2.65S217,206.66,216.08,206.07Z" transform="translate(-2.33 -56.25)"/><path class="cls-1" d="M245.17,185.65c13.63,7.78,18.71,7.53,30.36,0a156.84,156.84,0,0,1,16.59-9.21c2.24-1.09,4.46-2.2,6.75-3.19,1.78-.77,4-2,6-2.16H305c2.11-.12,1.65-0.49,1.12-1.07s-1.36-1.58-1.36-1.58c-3.59-4.51-11-4.88-30.85-1.67s-44,2.18-53.28,1c-12.51-1.61-11.28,6.18-11.28,6.18s8.51-2.55,26.76,6.63C239.21,182.1,242.18,183.95,245.17,185.65Z" transform="translate(-2.33 -56.25)"/><path class="cls-1" d="M311.44,331.65a3,3,0,0,1-2.75-1.84L262.78,218.73c-6.52-15.77-19.21-12.26-19.75-12.1l-0.3.07c-4.44.81-7,1.27-7.79,1.39-1,.15-1.3.51-2.37,2.08a21,21,0,0,1-1.6,2.13c-2.27,2.59-5.58,2.64-8,2.68-0.51,0-1,0-1.48.05s-0.81,0-1.32,0a13.12,13.12,0,0,0-1.65.05,3,3,0,0,1-3-5.09c1.38-.92,3.23-0.91,4.72-0.89,0.32,0,.6,0,0.81,0,0.58,0,1.21-.06,1.85-0.07,1.45,0,3.09-.05,3.63-0.66a15.9,15.9,0,0,0,1.15-1.56c1.16-1.71,2.75-4,6.38-4.61,0.73-.11,3.25-0.57,7.49-1.34,6.4-1.79,20-.81,26.76,15.58l45.91,111.08A3,3,0,0,1,311.44,331.65Zm-93-116.51h0Zm0.35-.17h0Z" transform="translate(-2.33 -56.25)"/><ellipse class="cls-1" cx="145.42" cy="316.11" rx="14.25" ry="14.2"/><path class="cls-1" d="M288.43,377.07a4.72,4.72,0,0,1-4.73-4.71c0-74.72-61-135.51-136-135.51s-136,60.79-136,135.51a4.73,4.73,0,0,1-9.46,0c0-79.92,65.23-144.94,145.42-144.94s145.42,65,145.42,144.94A4.72,4.72,0,0,1,288.43,377.07Z" transform="translate(-2.33 -56.25)"/><line class="cls-2" x1="268.9" y1="174.59" x2="333.81" y2="337.48"/><ellipse class="cls-4" cx="145.42" cy="316.11" rx="7.46" ry="7.43"/><line class="cls-2" x1="289.42" y1="226.38" x2="154.53" y2="310.43"/><path class="cls-6" d="M336.91,397.26" transform="translate(-2.33 -56.25)"/><path class="cls-1" d="M297.73,428H270a2.87,2.87,0,0,0-3,2.83v7.9a3.26,3.26,0,0,0,3,3.27h27.74a3.51,3.51,0,0,0,3.27-3.27v-7.9A3.12,3.12,0,0,0,297.73,428Z" transform="translate(-2.33 -56.25)"/><path class="cls-1" d="M283.86,437.25a2.47,2.47,0,0,1-1.43-4.49l53-37.26a2.47,2.47,0,1,1,2.86,4l-53,37.26A2.48,2.48,0,0,1,283.86,437.25Z" transform="translate(-2.33 -56.25)"/><path class="cls-4" d="M336.91,362.73a34.53,34.53,0,1,1-34.64,34.53,34.63,34.63,0,0,1,34.64-34.53" transform="translate(-2.33 -56.25)"/><path class="cls-1" d="M336.91,362.73a34.53,34.53,0,1,1-34.64,34.53,34.63,34.63,0,0,1,34.64-34.53m0-9.88a44.41,44.41,0,1,0,44.56,44.41,44.48,44.48,0,0,0-44.56-44.41h0Z" transform="translate(-2.33 -56.25)"/><path class="cls-1" d="M336.91,399.73a2.47,2.47,0,0,1-1.43-4.49l53-37.26a2.47,2.47,0,1,1,2.86,4l-53,37.26A2.48,2.48,0,0,1,336.91,399.73Z" transform="translate(-2.33 -56.25)"/><ellipse class="cls-7" cx="334.58" cy="341.01" rx="4.2" ry="4.19"/><path class="cls-1" d="M336.91,392.08a5.18,5.18,0,1,0,5.19,5.18,5.19,5.19,0,0,0-5.19-5.18h0Z" transform="translate(-2.33 -56.25)"/><path class="cls-1" d="M403.79,353H376.11a3,3,0,0,0-3.11,2.84v7.83a3.39,3.39,0,0,0,3.11,3.32h27.69a3.47,3.47,0,0,0,3.21-3.32v-7.83A3.05,3.05,0,0,0,403.79,353Z" transform="translate(-2.33 -56.25)"/><ellipse class="cls-4" cx="334.58" cy="341.01" rx="3.21" ry="3.2"/><ellipse class="cls-4" cx="387.62" cy="303.75" rx="3.21" ry="3.2"/><ellipse class="cls-4" cx="281.53" cy="378.53" rx="3.21" ry="3.2"/><path class="cls-6" d="M561.4,397.26" transform="translate(-2.33 -56.25)"/><path class="cls-1" d="M522.2,428H495a2.88,2.88,0,0,0-3,2.86v7.83a3.27,3.27,0,0,0,3,3.3H522.2c1.66,0,2.8-1.65,2.8-3.3v-7.83A2.72,2.72,0,0,0,522.2,428Z" transform="translate(-2.33 -56.25)"/><path class="cls-1" d="M508.36,437.25a2.47,2.47,0,0,1-1.43-4.49l53-37.26a2.47,2.47,0,1,1,2.86,4l-53,37.26A2.48,2.48,0,0,1,508.36,437.25Z" transform="translate(-2.33 -56.25)"/><path class="cls-4" d="M561.4,362.73a34.53,34.53,0,1,1-34.64,34.53,34.63,34.63,0,0,1,34.64-34.53" transform="translate(-2.33 -56.25)"/><path class="cls-1" d="M561.4,362.73a34.53,34.53,0,1,1-34.64,34.53,34.63,34.63,0,0,1,34.64-34.53m0-9.88A44.41,44.41,0,1,0,606,397.26a44.48,44.48,0,0,0-44.56-44.41h0Z" transform="translate(-2.33 -56.25)"/><path class="cls-1" d="M561.4,399.73a2.47,2.47,0,0,1-1.43-4.49L613,358a2.47,2.47,0,1,1,2.86,4l-53,37.26A2.48,2.48,0,0,1,561.4,399.73Z" transform="translate(-2.33 -56.25)"/><ellipse class="cls-7" cx="559.07" cy="341.01" rx="4.2" ry="4.19"/><path class="cls-1" d="M561.4,392.08a5.18,5.18,0,1,0,5.19,5.18,5.19,5.19,0,0,0-5.19-5.18h0Z" transform="translate(-2.33 -56.25)"/><path class="cls-1" d="M628.29,353H600.6a2.55,2.55,0,0,0-2.6,2.84v7.83c0,1.66.94,3.32,2.6,3.32h27.69c1.66,0,2.71-1.67,2.71-3.32v-7.83A2.64,2.64,0,0,0,628.29,353Z" transform="translate(-2.33 -56.25)"/><ellipse class="cls-4" cx="559.07" cy="341.01" rx="3.21" ry="3.2"/><ellipse class="cls-4" cx="612.11" cy="303.75" rx="3.21" ry="3.2"/><ellipse class="cls-4" cx="506.02" cy="378.53" rx="3.21" ry="3.2"/><path class="cls-6" d="M562.27,397.26" transform="translate(-2.33 -56.25)"/></svg>