<svg id="Layer_1" data-name="Layer 1" xmlns="http://www.w3.org/2000/svg" viewBox="0 0 100 100"><defs><style>.cls-1{fill:#f99224;}</style></defs><title>linkedin-orange</title><path class="cls-1" d="M200.49,161.71H115.26a7.3,7.3,0,0,0-7.38,7.21V254.5a7.3,7.3,0,0,0,7.38,7.22h85.23a7.32,7.32,0,0,0,7.4-7.22V168.92A7.31,7.31,0,0,0,200.49,161.71Zm-62.94,85.21H122.7V199.2h14.85v47.72Zm-7.42-54.24a8.6,8.6,0,1,1,8.6-8.6A8.6,8.6,0,0,1,130.13,192.68Zm63,54.24H178.27V223.72c0-5.53-.1-12.65-7.71-12.65s-8.9,6-8.9,12.26v23.6H146.85V199.2h14.22v6.52h0.2c2-3.75,6.82-7.71,14-7.71,15,0,17.79,9.88,17.79,22.73v26.17Z" transform="translate(-107.89 -161.71)"/></svg>