<svg width="74" height="66" viewBox="0 0 74 66" version="1.1" xmlns="http://www.w3.org/2000/svg" xmlns:xlink="http://www.w3.org/1999/xlink" xmlns:figma="http://www.figma.com/figma/ns">
<title>people-blue</title>
<desc>Created using Figma</desc>
<g id="Canvas" transform="translate(-233 -350)" figma:type="canvas">
<g id="people-blue" style="mix-blend-mode:normal;" figma:type="frame">
<g id="Polygon 3" style="mix-blend-mode:normal;" figma:type="vector">
<use xlink:href="#path0_stroke" transform="translate(235 398.411)" fill="#179FB5" style="mix-blend-mode:normal;"/>
</g>
<g id="Polygon 3" style="mix-blend-mode:normal;" figma:type="vector">
<use xlink:href="#path0_stroke" transform="translate(287 398.411)" fill="#179FB5" style="mix-blend-mode:normal;"/>
</g>
<g id="Polygon 3" style="mix-blend-mode:normal;" figma:type="vector">
<use xlink:href="#path0_stroke" transform="matrix(-1 1.22465e-16 -1.22465e-16 -1 292 411.588)" fill="#179FB5" style="mix-blend-mode:normal;"/>
</g>
<g id="Polygon 3" style="mix-blend-mode:normal;" figma:type="vector">
<use xlink:href="#path0_stroke" transform="matrix(-1 1.22465e-16 -1.22465e-16 -1 266 411.588)" fill="#179FB5" style="mix-blend-mode:normal;"/>
</g>
<g id="Polygon 3" style="mix-blend-mode:normal;" figma:type="vector">
<use xlink:href="#path0_stroke" transform="translate(261 398.411)" fill="#179FB5" style="mix-blend-mode:normal;"/>
</g>
<g id="Polygon 3" style="mix-blend-mode:normal;" figma:type="vector">
<use xlink:href="#path0_stroke" transform="translate(274 375.206)" fill="#179FB5" style="mix-blend-mode:normal;"/>
</g>
<g id="Polygon 3" style="mix-blend-mode:normal;" figma:type="vector">
<use xlink:href="#path0_stroke" transform="translate(261 352)" fill="#179FB5" style="mix-blend-mode:normal;"/>
</g>
<g id="Polygon 3" style="mix-blend-mode:normal;" figma:type="vector">
<use xlink:href="#path0_stroke" transform="matrix(-1 1.22465e-16 -1.22465e-16 -1 279 387.589)" fill="#179FB5" style="mix-blend-mode:normal;"/>
</g>
<g id="Polygon 3" style="mix-blend-mode:normal;" figma:type="vector">
<use xlink:href="#path0_stroke" transform="translate(248 375.206)" fill="#179FB5" style="mix-blend-mode:normal;"/>
</g>
</g>
</g>
<defs>
<path id="path0_stroke" d="M 9 0L 10.1691 -0.675C 9.92798 -1.09269 9.48231 -1.35 9 -1.35C 8.5177 -1.35 8.07202 -1.09269 7.83087 -0.675L 9 0ZM 18 15.5885L 18 16.9385C 18.4823 16.9385 18.928 16.6811 19.1691 16.2635C 19.4103 15.8458 19.4103 15.3311 19.1691 14.9135L 18 15.5885ZM 5.42001e-06 15.5885L -1.16913 14.9135C -1.41028 15.3311 -1.41028 15.8458 -1.16913 16.2635C -0.927975 16.6811 -0.482303 16.9385 5.42001e-06 16.9385L 5.42001e-06 15.5885ZM 7.83087 0.675L 16.8309 16.2635L 19.1691 14.9135L 10.1691 -0.675L 7.83087 0.675ZM 18 14.2385L 5.42001e-06 14.2385L 5.42001e-06 16.9385L 18 16.9385L 18 14.2385ZM 1.16914 16.2635L 10.1691 0.675L 7.83087 -0.675L -1.16913 14.9135L 1.16914 16.2635Z"/>
</defs>
</svg>
