<svg id="Layer_1" data-name="Layer 1" xmlns="http://www.w3.org/2000/svg" viewBox="0 0 955.67 449.12"><defs><style>.cls-1,.cls-3,.cls-4,.cls-5,.cls-6,.cls-7,.cls-9{fill:none;}.cls-1,.cls-3,.cls-6,.cls-9{stroke:#fff;}.cls-1,.cls-5{stroke-miterlimit:10;stroke-width:0.75px;}.cls-2{fill:#fff;}.cls-3,.cls-4,.cls-6,.cls-7{stroke-linecap:round;}.cls-3,.cls-4,.cls-6,.cls-7,.cls-9{stroke-linejoin:round;}.cls-3,.cls-7{stroke-width:10px;}.cls-4,.cls-7{stroke:#208aae;}.cls-4,.cls-6,.cls-9{stroke-width:8px;}.cls-5{stroke:#dadce2;}.cls-8{fill:#f55d3e;}</style></defs><title>startups</title><line class="cls-1" x1="144.97" y1="170.18" x2="144.97" y2="440.14"/><line class="cls-1" x1="278.95" y1="304.16" x2="9.2" y2="304.16"/><line class="cls-1" x1="239.71" y1="209.42" x2="48.21" y2="400.91"/><line class="cls-1" x1="241.27" y1="400.46" x2="48.44" y2="207.63"/><line class="cls-1" x1="93.24" y1="176.13" x2="195.6" y2="429.48"/><line class="cls-1" x1="270.36" y1="253.49" x2="19.36" y2="354.9"/><line class="cls-1" x1="197.72" y1="179.88" x2="91.49" y2="430.14"/><line class="cls-1" x1="269.93" y1="357.2" x2="19.5" y2="250.9"/><path class="cls-2" d="M145,170.33a134,134,0,1,1-94.74,39.24A133.1,133.1,0,0,1,145,170.33m0-11a145,145,0,1,0,145,145,145,145,0,0,0-145-145h0Z" transform="translate(0 -0.16)"/><polyline class="cls-3" points="501.31 100.43 504.94 113.44 565.55 330.72"/><path class="cls-4" d="M736.31,100.58" transform="translate(0 -0.16)"/><line class="cls-1" x1="810.7" y1="170.18" x2="810.7" y2="440.14"/><line class="cls-1" x1="944.68" y1="304.16" x2="674.94" y2="304.16"/><line class="cls-1" x1="905.44" y1="209.42" x2="713.95" y2="400.91"/><line class="cls-1" x1="907.01" y1="400.46" x2="714.17" y2="207.63"/><line class="cls-1" x1="758.98" y1="176.13" x2="861.33" y2="429.48"/><line class="cls-1" x1="936.09" y1="253.49" x2="685.09" y2="354.9"/><line class="cls-1" x1="863.45" y1="179.88" x2="757.23" y2="430.14"/><line class="cls-1" x1="935.66" y1="357.2" x2="685.23" y2="250.9"/><path class="cls-2" d="M810.7,170.33A134,134,0,1,1,716,209.58a133.1,133.1,0,0,1,94.74-39.24m0-11a145,145,0,1,0,145,145,145,145,0,0,0-145-145h0Z" transform="translate(0 -0.16)"/><path class="cls-5" d="M763.6,330.73" transform="translate(0 -0.16)"/><path class="cls-2" d="M807,307.37l-0.57-.55-0.7-.67c-0.3-.3-0.7-0.77-1.11-1.23l-0.67-.77c-0.23-.27-0.4-0.52-0.62-0.8-0.4-.55-0.9-1.16-1.33-1.82l-1.41-2.13L799.14,297c-4-6.89-8.44-17-13-29.26-9.17-24.57-18.93-57.9-27.84-91.43s-17-67.24-22.79-92.58-9.43-42.3-9.43-42.3l5-1.1s3.79,16.87,9.91,42.1,14.56,58.79,23.83,92.1c4.64,16.66,9.48,33.25,14.33,48.68s9.71,29.72,14.35,41.72,9.09,21.71,12.77,27.9L807.6,295l1.23,1.81c0.38,0.57.76,1,1.1,1.46,0.17,0.21.33,0.45,0.48,0.61l0.4,0.44c0.26,0.29.43,0.52,0.68,0.77l0.71,0.67,0.58,0.54Z" transform="translate(0 -0.16)"/><line class="cls-6" x1="544.14" y1="253.64" x2="750.1" y2="136.21"/><polyline class="cls-6" points="333.96 330.34 737.21 100.43 265.09 100.43"/><line class="cls-6" x1="144.92" y1="303.35" x2="501.31" y2="100.43"/><path class="cls-7" d="M145,304.31" transform="translate(0 -0.16)"/><path class="cls-4" d="M145.15,304.48" transform="translate(0 -0.16)"/><path class="cls-5" d="M97.87,330.73" transform="translate(0 -0.16)"/><path class="cls-8" d="M145,314.06a9.75,9.75,0,1,1,9.75-9.75A9.76,9.76,0,0,1,145,314.06Z" transform="translate(0 -0.16)"/><path class="cls-2" d="M145,297.06a7.25,7.25,0,1,1-7.25,7.25,7.26,7.26,0,0,1,7.25-7.25m0-5a12.25,12.25,0,1,0,12.25,12.25A12.25,12.25,0,0,0,145,292.06h0Z" transform="translate(0 -0.16)"/><path class="cls-8" d="M810.7,314.06a9.75,9.75,0,1,1,9.75-9.75A9.76,9.76,0,0,1,810.7,314.06Z" transform="translate(0 -0.16)"/><path class="cls-2" d="M810.7,297.06a7.25,7.25,0,1,1-7.25,7.25,7.26,7.26,0,0,1,7.25-7.25m0-5A12.25,12.25,0,1,0,823,304.31a12.25,12.25,0,0,0-12.25-12.25h0Z" transform="translate(0 -0.16)"/><line class="cls-9" x1="480.44" y1="25.63" x2="565.55" y2="330.72"/><path class="cls-2" d="M425.34,4.32a4.29,4.29,0,0,1-.11-3.15c0.72-1.54,2.7-1,3.93-.51,0.9,0.35,1.77.79,2.66,1.18a40.68,40.68,0,0,0,4,1.54,59.43,59.43,0,0,0,6.5,1.68c3.38,0.69,6.8,1.19,10.23,1.6,5,0.6,10.11,1,15.17,1.31,7.1,0.43,14.21.67,21.32,0.81C498.59,9,508.15,9,517.71,8.87c6.44-.07,13.35-0.91,18.86,3.25a12.45,12.45,0,0,1,3.5,4.1s2.22,4.64-2.56,3.63-33-2.62-54,9.35c-6.72,3.83-14.63,4.61-22.15,3.12a51.57,51.57,0,0,1-21.24-10,49.79,49.79,0,0,1-14.37-17A9.39,9.39,0,0,1,425.34,4.32Z" transform="translate(0 -0.16)"/><rect class="cls-2" x="488.43" y="365.75" width="38.76" height="11.84" rx="2" ry="2" transform="translate(1015.63 743.19) rotate(180)"/><path class="cls-2" d="M505.18,368.19a4.31,4.31,0,0,0,5.18,6.88l61-38.74a6.78,6.78,0,1,0-7.74-11.14Z" transform="translate(0 -0.16)"/><path class="cls-2" d="M566.75,285.86a44.51,44.51,0,1,0,45.11,43.9A44.51,44.51,0,0,0,566.75,285.86Zm-3.8,5.8a39.17,39.17,0,0,1,28.1,7.78,4.32,4.32,0,0,1,0,6.92l-17.41,12.84A4.31,4.31,0,0,1,567,317.3l-7.68-19.79A4.33,4.33,0,0,1,563,291.66ZM529.08,322.5a39.17,39.17,0,0,1,16.19-24.27,4.32,4.32,0,0,1,6.53,2.05l7.26,19.93a4.31,4.31,0,0,1-3.7,5.77l-21.71,1.74A4.32,4.32,0,0,1,529.08,322.5Zm30.81,17.34-5.5,21.94a4.31,4.31,0,0,1-6.28,2.72,39.17,39.17,0,0,1-18.26-23.11,4.33,4.33,0,0,1,3.86-5.57l21.74-1.33A4.31,4.31,0,0,1,559.89,339.84Zm33.22,19.55a39.17,39.17,0,0,1-27.62,10.23,4.33,4.33,0,0,1-4.1-5.39l5.45-21.09a4.31,4.31,0,0,1,6.46-2.57l19.17,12A4.31,4.31,0,0,1,593.1,359.39Zm4.54-13.88-18.44-12.84a4.31,4.31,0,0,1-.18-6.94l17.26-13.36a4.29,4.29,0,0,1,6.5,1.51,39.17,39.17,0,0,1,1.39,29.5A4.32,4.32,0,0,1,597.65,345.51Z" transform="translate(0 -0.16)"/><path class="cls-8" d="M566.83,291.54a38.82,38.82,0,1,0,39.35,38.29A38.82,38.82,0,0,0,566.83,291.54Z" transform="translate(0 -0.16)"/><rect class="cls-2" x="607.88" y="283.63" width="38.76" height="11.84" rx="2" ry="2"/><path class="cls-2" d="M629.89,293.19a4.31,4.31,0,0,0-5.18-6.88l-61,38.74a6.78,6.78,0,1,0,7.74,11.14Z" transform="translate(0 -0.16)"/><circle class="cls-8" cx="567.53" cy="330.5" r="3.77" transform="translate(-59.55 135.17) rotate(-12.93)"/><circle class="cls-8" cx="627.26" cy="289.7" r="3" transform="translate(-48.91 147.5) rotate(-12.93)"/><path class="cls-7" d="M567.53,330.5" transform="translate(0 -0.16)"/><circle class="cls-8" cx="507.81" cy="371.67" r="3" transform="translate(-70.27 122.86) rotate(-12.93)"/><line class="cls-9" x1="244.23" y1="25.63" x2="329.34" y2="330.72"/><path class="cls-2" d="M189.12,4.32A4.29,4.29,0,0,1,189,1.17c0.72-1.54,2.7-1,3.93-.51,0.9,0.35,1.77.79,2.66,1.18a40.68,40.68,0,0,0,4,1.54,59.43,59.43,0,0,0,6.5,1.68c3.38,0.69,6.8,1.19,10.23,1.6,5,0.6,10.11,1,15.17,1.31,7.1,0.43,14.21.67,21.32,0.81C262.37,9,271.93,9,281.49,8.87c6.44-.07,13.35-0.91,18.86,3.25a12.45,12.45,0,0,1,3.5,4.1s2.22,4.64-2.56,3.63-33-2.62-54,9.35c-6.72,3.83-14.63,4.61-22.15,3.12a51.57,51.57,0,0,1-21.24-10,49.79,49.79,0,0,1-14.37-17A9.39,9.39,0,0,1,189.12,4.32Z" transform="translate(0 -0.16)"/><rect class="cls-2" x="252.22" y="365.75" width="38.76" height="11.84" rx="2" ry="2" transform="translate(543.19 743.19) rotate(180)"/><path class="cls-2" d="M269,368.19a4.31,4.31,0,0,0,5.18,6.88l61-38.74a6.78,6.78,0,0,0-7.74-11.14Z" transform="translate(0 -0.16)"/><path class="cls-2" d="M330.53,285.86a44.51,44.51,0,1,0,45.11,43.9A44.51,44.51,0,0,0,330.53,285.86Zm-3.8,5.8a39.17,39.17,0,0,1,28.1,7.78,4.32,4.32,0,0,1,0,6.92l-17.41,12.84a4.31,4.31,0,0,1-6.57-1.91l-7.68-19.79A4.33,4.33,0,0,1,326.74,291.66ZM292.86,322.5A39.17,39.17,0,0,1,309,298.23a4.32,4.32,0,0,1,6.53,2.05l7.26,19.93a4.31,4.31,0,0,1-3.7,5.77l-21.71,1.74A4.32,4.32,0,0,1,292.86,322.5Zm30.81,17.34-5.5,21.94a4.31,4.31,0,0,1-6.28,2.72,39.17,39.17,0,0,1-18.26-23.11,4.33,4.33,0,0,1,3.86-5.57l21.74-1.33A4.31,4.31,0,0,1,323.67,339.84Zm33.22,19.55a39.17,39.17,0,0,1-27.62,10.23,4.33,4.33,0,0,1-4.1-5.39l5.45-21.09a4.31,4.31,0,0,1,6.46-2.57l19.17,12A4.31,4.31,0,0,1,356.89,359.39Zm4.54-13.88L343,332.67a4.31,4.31,0,0,1-.18-6.94l17.26-13.36a4.29,4.29,0,0,1,6.5,1.51,39.17,39.17,0,0,1,1.39,29.5A4.32,4.32,0,0,1,361.43,345.51Z" transform="translate(0 -0.16)"/><path class="cls-8" d="M330.61,291.54A38.82,38.82,0,1,0,370,329.84,38.82,38.82,0,0,0,330.61,291.54Z" transform="translate(0 -0.16)"/><rect class="cls-2" x="371.66" y="283.63" width="38.76" height="11.84" rx="2" ry="2"/><path class="cls-2" d="M393.68,293.19a4.31,4.31,0,0,0-5.18-6.88l-61,38.74a6.78,6.78,0,0,0,7.74,11.14Z" transform="translate(0 -0.16)"/><circle class="cls-8" cx="331.31" cy="330.5" r="3.77" transform="translate(-65.54 82.33) rotate(-12.93)"/><circle class="cls-8" cx="391.04" cy="289.7" r="3" transform="translate(-54.9 94.66) rotate(-12.93)"/><path class="cls-7" d="M331.31,330.5" transform="translate(0 -0.16)"/><circle class="cls-8" cx="271.6" cy="371.67" r="3" transform="translate(-76.26 70.02) rotate(-12.93)"/><polyline class="cls-3" points="728.58 40.69 766.36 40.69 793.73 24.61"/></svg>