<?xml version="1.0" encoding="utf-8"?>
<!-- Generator: Adobe Illustrator 19.2.1, SVG Export Plug-In . SVG Version: 6.00 Build 0)  -->
<svg version="1.1" id="Layer_1" xmlns="http://www.w3.org/2000/svg" xmlns:xlink="http://www.w3.org/1999/xlink" x="0px" y="0px"
	 viewBox="0 0 955.7 449.1" style="enable-background:new 0 0 955.7 449.1;" xml:space="preserve">
<style type="text/css">
	.st0{fill:none;stroke:#FFFFFF;stroke-width:0.75;stroke-miterlimit:10;}
	.st1{fill:#FFFFFF;}
	.st2{fill:none;stroke:#FFFFFF;stroke-width:10;stroke-linecap:round;stroke-linejoin:round;}
	.st3{fill:none;stroke:#208AAE;stroke-width:8;stroke-linecap:round;stroke-linejoin:round;}
	.st4{fill:none;stroke:#DADCE2;stroke-width:0.75;stroke-miterlimit:10;}
	.st5{fill:none;stroke:#FFFFFF;stroke-width:8;stroke-linecap:round;stroke-linejoin:round;}
	.st6{fill:none;stroke:#208AAE;stroke-width:10;stroke-linecap:round;stroke-linejoin:round;}
	.st7{fill:#F55D3E;}
	.st8{fill:none;stroke:#FFFFFF;stroke-width:8;stroke-linejoin:round;}
</style>
<title>startups</title>
<line class="st0" x1="145" y1="170.2" x2="145" y2="440.1"/>
<line class="st0" x1="279" y1="304.2" x2="9.2" y2="304.2"/>
<line class="st0" x1="239.7" y1="209.4" x2="48.2" y2="400.9"/>
<line class="st0" x1="241.3" y1="400.5" x2="48.4" y2="207.6"/>
<line class="st0" x1="93.2" y1="176.1" x2="195.6" y2="429.5"/>
<line class="st0" x1="270.4" y1="253.5" x2="19.4" y2="354.9"/>
<line class="st0" x1="197.7" y1="179.9" x2="91.5" y2="430.1"/>
<line class="st0" x1="269.9" y1="357.2" x2="19.5" y2="250.9"/>
<path class="st1" d="M145,170.2c74,0,134,60,134,134c0,74-60,134-134,134c-74,0-134-60-134-134c0-35.5,14.1-69.6,39.3-94.8
	C75.3,184.2,109.4,170.1,145,170.2 M145,159.2c-80.1,0-145,64.9-145,145s64.9,145,145,145s145-64.9,145-145S225.1,159.2,145,159.2
	L145,159.2L145,159.2L145,159.2z"/>
<polyline class="st2" points="501.3,100.4 504.9,113.4 565.5,330.7 "/>
<path class="st3" d="M736.3,100.4"/>
<line class="st0" x1="810.7" y1="170.2" x2="810.7" y2="440.1"/>
<line class="st0" x1="944.7" y1="304.2" x2="674.9" y2="304.2"/>
<line class="st0" x1="905.4" y1="209.4" x2="714" y2="400.9"/>
<line class="st0" x1="907" y1="400.5" x2="714.2" y2="207.6"/>
<line class="st0" x1="759" y1="176.1" x2="861.3" y2="429.5"/>
<line class="st0" x1="936.1" y1="253.5" x2="685.1" y2="354.9"/>
<path class="st1" d="M808.2,306.2c0,0-0.2-0.2-0.6-0.5c-0.2-0.2-0.4-0.4-0.7-0.7c-0.3-0.3-0.7-0.7-1-1.1c-1.6-1.8-3.4-4.3-5.4-7.7
	c-4-6.7-8.6-16.7-13.3-28.9c-9.4-24.4-19.6-57.6-28.9-91c-9.3-33.4-17.8-67-23.9-92.3c-3.1-12.6-5.6-23.2-7.3-30.6
	c-1.7-7.4-2.7-11.6-2.7-11.6l8.8-1.9c0,0,0.9,4.2,2.5,11.6c1.6,7.4,4,17.9,6.9,30.6c5.8,25.3,13.8,58.9,22.7,92.4
	c8.9,33.4,18.6,66.6,27.6,90.8c4.5,12.1,8.8,21.9,12.5,28.2c1.8,3.2,3.5,5.5,4.6,6.8c0.3,0.3,0.5,0.6,0.7,0.9
	c0.3,0.3,0.5,0.5,0.7,0.7c0.4,0.4,0.6,0.5,0.6,0.5L808.2,306.2z"/>
<line class="st0" x1="863.5" y1="179.9" x2="757.2" y2="430.1"/>
<line class="st0" x1="935.7" y1="357.2" x2="685.2" y2="250.9"/>
<path class="st1" d="M810.7,170.2c74,0,134,59.9,134.1,133.9c0,74-59.9,134-133.9,134.1c-74,0-134-59.9-134.1-133.9
	c0-35.6,14.1-69.7,39.2-94.8C741.1,184.2,775.2,170.1,810.7,170.2 M810.7,159.2c-80.1,0-145,64.9-145,145s64.9,145,145,145
	s145-64.9,145-145S890.8,159.2,810.7,159.2L810.7,159.2z"/>
<path class="st4" d="M763.6,330.6"/>
<line class="st5" x1="544.1" y1="253.6" x2="750.1" y2="136.2"/>
<polyline class="st5" points="334,330.3 737.2,100.4 265.1,100.4 "/>
<line class="st5" x1="144.9" y1="303.4" x2="501.3" y2="100.4"/>
<path class="st6" d="M145,304.1"/>
<path class="st3" d="M145.1,304.3"/>
<path class="st4" d="M97.9,330.6"/>
<path class="st7" d="M145,313.9c-5.4,0-9.8-4.4-9.8-9.8s4.4-9.8,9.8-9.8s9.8,4.4,9.8,9.8C154.7,309.5,150.4,313.9,145,313.9z"/>
<path class="st1" d="M145,296.9c4,0,7.2,3.2,7.2,7.2s-3.2,7.2-7.2,7.2s-7.2-3.2-7.2-7.2l0,0C137.8,300.1,141,296.9,145,296.9
	 M145,291.9c-6.8,0-12.2,5.5-12.2,12.2s5.5,12.2,12.2,12.2s12.2-5.5,12.2-12.2l0,0C157.2,297.4,151.8,291.9,145,291.9L145,291.9z"/>
<path class="st7" d="M810.7,313.9c-5.4,0-9.8-4.4-9.8-9.8s4.4-9.8,9.8-9.8s9.8,4.4,9.8,9.8C820.4,309.5,816.1,313.9,810.7,313.9z"/>
<path class="st1" d="M810.7,296.9c4,0,7.2,3.2,7.2,7.2s-3.2,7.2-7.2,7.2s-7.2-3.2-7.2-7.2l0,0C803.5,300.1,806.7,296.9,810.7,296.9
	 M810.7,291.9c-6.8,0-12.2,5.5-12.2,12.3c0,6.8,5.5,12.2,12.3,12.2c6.7,0,12.2-5.5,12.2-12.2C823,297.4,817.5,291.9,810.7,291.9
	L810.7,291.9L810.7,291.9z"/>
<line class="st8" x1="480.4" y1="25.6" x2="565.5" y2="330.7"/>
<path class="st1" d="M425.3,4.2c-0.4-1-0.5-2.1-0.1-3.2c0.7-1.5,2.7-1,3.9-0.5c0.9,0.4,1.8,0.8,2.7,1.2c1.3,0.6,2.6,1.1,4,1.5
	c2.1,0.7,4.3,1.2,6.5,1.7c3.4,0.7,6.8,1.2,10.2,1.6c5,0.6,10.1,1,15.2,1.3c7.1,0.4,14.2,0.7,21.3,0.8c9.5,0.2,19.1,0.2,28.7,0.1
	c6.4-0.1,13.3-0.9,18.9,3.2c1.5,1.1,2.6,2.5,3.5,4.1c0,0,2.2,4.6-2.6,3.6s-33-2.6-54,9.4c-6.7,3.8-14.6,4.6-22.1,3.1
	c-7.8-1.7-15-5.1-21.2-10c-6-4.5-10.9-10.3-14.4-17C425.6,4.8,425.5,4.5,425.3,4.2z"/>
<path class="st1" d="M525.2,377.4h-34.8c-1.1,0-2-0.9-2-2v-7.8c0-1.1,0.9-2,2-2h34.8c1.1,0,2,0.9,2,2v7.8
	C527.2,376.5,526.3,377.4,525.2,377.4z"/>
<path class="st1" d="M505.2,368c-1.8,1.5-2.1,4.2-0.6,6.1c1.4,1.7,3.9,2.1,5.8,0.8l61-38.7c3.1-2.1,3.8-6.4,1.7-9.4
	s-6.4-3.8-9.4-1.7L505.2,368z"/>
<path class="st1" d="M566.8,285.7c-24.6,0.3-44.2,20.5-43.9,45.1c0.3,24.6,20.5,44.2,45.1,43.9c24.6-0.3,44.2-20.5,43.9-45.1
	c0,0,0,0,0,0C611.5,305,591.3,285.4,566.8,285.7z M563,291.5c10-1.1,20.1,1.7,28.1,7.8c1.9,1.4,2.3,4.1,0.9,6
	c-0.2,0.3-0.5,0.6-0.9,0.9L573.6,319c-1.9,1.4-4.6,1.1-6-0.8c-0.3-0.3-0.5-0.7-0.6-1.1l-7.7-19.8c-0.8-2.2,0.3-4.7,2.5-5.6
	C562.2,291.6,562.6,291.5,563,291.5L563,291.5z M529.1,322.3c2.1-9.9,7.9-18.6,16.2-24.3c2-1.4,4.6-0.9,6,1.1c0.2,0.3,0.4,0.6,0.5,1
	l7.3,19.9c0.8,2.2-0.3,4.7-2.6,5.5c-0.4,0.1-0.7,0.2-1.1,0.2l-21.7,1.7c-2.4,0.2-4.5-1.6-4.7-4C529,323.2,529,322.8,529.1,322.3z
	 M559.9,339.7l-5.5,21.9c-0.6,2.3-2.9,3.7-5.2,3.1c-0.4-0.1-0.7-0.2-1.1-0.4c-8.9-5-15.4-13.3-18.3-23.1c-0.7-2.3,0.6-4.7,2.9-5.4
	c0.3-0.1,0.6-0.2,1-0.2l21.7-1.3c2.4-0.1,4.4,1.7,4.6,4C560,338.8,560,339.3,559.9,339.7z M593.1,359.2
	c-7.5,6.9-17.4,10.5-27.6,10.2c-2.4-0.1-4.3-2-4.2-4.4c0-0.3,0.1-0.6,0.1-1l5.5-21.1c0.6-2.3,3-3.7,5.3-3.1c0.4,0.1,0.8,0.3,1.2,0.5
	l19.2,12c2,1.3,2.6,3.9,1.4,5.9C593.6,358.7,593.4,359,593.1,359.2L593.1,359.2z M597.6,345.3l-18.4-12.8c-2-1.4-2.4-4-1.1-6
	c0.2-0.4,0.5-0.7,0.9-0.9l17.3-13.4c1.9-1.5,4.6-1.1,6,0.7c0.2,0.2,0.3,0.5,0.5,0.8c4.3,9.3,4.8,19.9,1.4,29.5
	c-0.8,2.3-3.3,3.4-5.5,2.7C598.3,345.7,598,345.6,597.6,345.3L597.6,345.3z"/>
<path class="st7" d="M566.8,291.4c-21.4,0.3-38.6,17.9-38.3,39.3c0.3,21.4,17.9,38.6,39.3,38.3c21.4-0.3,38.6-17.9,38.3-39.3
	C605.9,308.2,588.3,291.1,566.8,291.4C566.8,291.4,566.8,291.4,566.8,291.4z"/>
<path class="st1" d="M609.9,283.6h34.8c1.1,0,2,0.9,2,2v7.8c0,1.1-0.9,2-2,2h-34.8c-1.1,0-2-0.9-2-2v-7.8
	C607.9,284.5,608.8,283.6,609.9,283.6z"/>
<path class="st1" d="M629.9,293c1.8-1.5,2.1-4.2,0.6-6.1c-1.4-1.7-3.9-2.1-5.8-0.8l-61,38.7c-3.1,2.1-3.8,6.4-1.7,9.4
	s6.4,3.8,9.4,1.7L629.9,293z"/>
<ellipse transform="matrix(0.9746 -0.2238 0.2238 0.9746 -59.5174 135.3686)" class="st7" cx="567.5" cy="330.3" rx="3.8" ry="3.8"/>
<ellipse transform="matrix(0.9746 -0.2238 0.2238 0.9746 -48.8734 147.6984)" class="st7" cx="627.3" cy="289.5" rx="3" ry="3"/>
<path class="st6" d="M567.5,330.3"/>
<ellipse transform="matrix(0.9746 -0.2238 0.2238 0.9746 -70.2457 123.0512)" class="st7" cx="507.8" cy="371.5" rx="3" ry="3"/>
<line class="st8" x1="244.2" y1="25.6" x2="329.3" y2="330.7"/>
<path class="st1" d="M189.1,4.2c-0.4-1-0.5-2.1-0.1-3.2c0.7-1.5,2.7-1,3.9-0.5c0.9,0.4,1.8,0.8,2.7,1.2c1.3,0.6,2.6,1.1,4,1.5
	c2.1,0.7,4.3,1.2,6.5,1.7c3.4,0.7,6.8,1.2,10.2,1.6c5,0.6,10.1,1,15.2,1.3c7.1,0.4,14.2,0.7,21.3,0.8c9.6,0.2,19.1,0.2,28.7,0.1
	c6.4-0.1,13.4-0.9,18.9,3.2c1.5,1.1,2.6,2.5,3.5,4.1c0,0,2.2,4.6-2.6,3.6s-33-2.6-54,9.4c-6.7,3.8-14.6,4.6-22.1,3.1
	c-7.8-1.7-15-5.1-21.2-10c-6-4.5-10.9-10.3-14.4-17C189.4,4.8,189.2,4.5,189.1,4.2z"/>
<path class="st1" d="M289,377.4h-34.8c-1.1,0-2-0.9-2-2v-7.8c0-1.1,0.9-2,2-2H289c1.1,0,2,0.9,2,2v7.8
	C291,376.5,290.1,377.4,289,377.4z"/>
<path class="st1" d="M269,368c-1.8,1.5-2.1,4.2-0.6,6.1c1.4,1.7,3.9,2.1,5.8,0.8l61-38.7c3.1-2.1,3.8-6.4,1.7-9.4s-6.4-3.8-9.4-1.7
	l0,0L269,368z"/>
<path class="st1" d="M330.5,285.7c-24.6,0.3-44.2,20.5-43.9,45.1c0.3,24.6,20.5,44.2,45.1,43.9c24.6-0.3,44.2-20.5,43.9-45.1
	c0,0,0,0,0,0C375.3,305,355.1,285.4,330.5,285.7z M326.7,291.5c10-1.1,20.1,1.7,28.1,7.8c1.9,1.4,2.3,4.1,0.9,6
	c-0.2,0.3-0.5,0.6-0.9,0.9L337.4,319c-1.9,1.4-4.6,1-6-0.9c-0.2-0.3-0.4-0.6-0.5-1l-7.7-19.8c-0.8-2.2,0.3-4.7,2.5-5.6
	C326,291.6,326.4,291.5,326.7,291.5L326.7,291.5z M292.9,322.3c2.1-9.9,7.8-18.6,16.1-24.3c2-1.4,4.6-0.9,6,1.1
	c0.2,0.3,0.4,0.6,0.5,1l7.3,19.9c0.8,2.2-0.3,4.7-2.6,5.5c-0.4,0.1-0.7,0.2-1.1,0.2l-21.7,1.7c-2.4,0.2-4.4-1.6-4.6-4
	C292.7,323.1,292.8,322.7,292.9,322.3z M323.7,339.7l-5.5,21.9c-0.6,2.3-2.9,3.7-5.2,3.1c-0.4-0.1-0.7-0.2-1.1-0.4
	c-8.9-5-15.4-13.3-18.3-23.1c-0.7-2.3,0.6-4.7,2.9-5.4c0.3-0.1,0.6-0.2,1-0.2l21.7-1.3c2.4-0.1,4.4,1.7,4.6,4
	C323.8,338.8,323.8,339.3,323.7,339.7L323.7,339.7z M356.9,359.2c-7.5,6.9-17.4,10.5-27.6,10.2c-2.4-0.1-4.3-2-4.2-4.4
	c0-0.3,0.1-0.6,0.1-1l5.5-21.1c0.6-2.3,3-3.7,5.3-3.1c0.4,0.1,0.8,0.3,1.2,0.5l19.2,12c2,1.3,2.6,3.9,1.4,5.9
	C357.4,358.7,357.2,359,356.9,359.2L356.9,359.2z M361.4,345.3L343,332.5c-2-1.4-2.4-4-1.1-6c0.2-0.4,0.5-0.7,0.9-0.9l17.3-13.4
	c1.9-1.5,4.6-1.1,6,0.7c0.2,0.2,0.3,0.5,0.5,0.8c4.3,9.3,4.8,19.9,1.4,29.5c-0.8,2.3-3.2,3.4-5.5,2.7
	C362.1,345.8,361.8,345.6,361.4,345.3L361.4,345.3z"/>
<path class="st7" d="M330.6,291.4c-21.4,0.3-38.6,18-38.2,39.4c0.3,21.4,18,38.6,39.4,38.2c21.4-0.3,38.5-17.9,38.2-39.3
	C369.7,308.2,352.1,291.1,330.6,291.4C330.6,291.4,330.6,291.4,330.6,291.4z"/>
<path class="st1" d="M373.7,283.6h34.8c1.1,0,2,0.9,2,2v7.8c0,1.1-0.9,2-2,2h-34.8c-1.1,0-2-0.9-2-2v-7.8
	C371.7,284.5,372.6,283.6,373.7,283.6z"/>
<path class="st1" d="M393.7,293c1.8-1.5,2.1-4.2,0.6-6.1c-1.4-1.7-3.9-2.1-5.8-0.8l-61,38.7c-3.1,2.1-3.8,6.4-1.7,9.4
	s6.4,3.8,9.4,1.7L393.7,293z"/>
<ellipse transform="matrix(0.9746 -0.2238 0.2238 0.9746 -65.5107 82.5122)" class="st7" cx="331.3" cy="330.3" rx="3.8" ry="3.8"/>
<ellipse transform="matrix(0.9746 -0.2238 0.2238 0.9746 -54.8667 94.842)" class="st7" cx="391" cy="289.5" rx="3" ry="3"/>
<path class="st6" d="M331.3,330.3"/>
<ellipse transform="matrix(0.9746 -0.2238 0.2238 0.9746 -76.2383 70.197)" class="st7" cx="271.6" cy="371.5" rx="3" ry="3"/>
<polyline class="st2" points="728.6,40.7 766.4,40.7 793.7,24.6 "/>
</svg>
