<svg id="Layer_1" data-name="Layer 1" xmlns="http://www.w3.org/2000/svg" viewBox="0 0 945.65 422.77"><defs><style>.cls-1,.cls-2{fill:none;stroke:#222;stroke-linecap:round;stroke-linejoin:round;}.cls-1{stroke-width:23.23px;}.cls-2{stroke-width:22.65px;}.cls-3{fill:#222;}</style></defs><title>tandem-grey</title><path class="cls-1" d="M439.35,273.28a19.68,19.68,0,0,0,9.92,26c15.65,7.08,30.08-6.44,39.25-17.69a325.12,325.12,0,0,0,31.7-47.31" transform="translate(-0.01 0)"/><path class="cls-1" d="M570.44,273.28a19.68,19.68,0,0,0,9.92,26c15.65,7.08,30.08-6.44,39.25-17.69a325.12,325.12,0,0,0,31.7-47.31" transform="translate(-0.01 0)"/><path class="cls-1" d="M743.22,301.11c8.7-19,38-91.05,50.94-121.43" transform="translate(-0.01 0)"/><path class="cls-1" d="M774.23,227.28A155.11,155.11,0,0,1,792.31,201c8.64-10.22,20.94-25.49,35.92-18.78C836.75,186,839.5,195,839.5,203.91c0,19.62-9.19,36.49-16.54,54.27-6.45,15.61-11.14,27.54-18.22,43" transform="translate(-0.01 0)"/><path class="cls-1" d="M835.41,227.55a155.11,155.11,0,0,1,18.09-26.27c8.64-10.22,20.94-25.49,35.92-18.78,8.52,3.81,11.27,12.76,11.27,21.71,0,19.62-9.19,36.49-16.54,54.27-5.36,13-9.5,23.38-14.8,35.41,0,0-5.17,8.52,3.76,8.52" transform="translate(-0.01 0)"/><path class="cls-1" d="M664.65,48.61q-13.38,30.73-26.3,61.67c-11.56,27.73-22.17,55.85-34,83.45-9.42,21.89-18.42,44-27.84,65.86-2,4.57-3.94,9.14-6,13.67" transform="translate(-0.01 0)"/><path class="cls-1" d="M521.33,299.86c15,6.7,27.28-8.56,35.92-18.78,14.2-16.81,25.58-36.76,30-58.48a94.81,94.81,0,0,0,1.93-18.86c0-9-2.75-17.9-11.27-21.71h0c-15-6.7-27.28,8.56-35.92,18.78-14.2,16.81-25.58,36.76-30,58.48a94.81,94.81,0,0,0-1.93,18.86c0,9,2.75,17.9,11.27,21.71" transform="translate(-0.01 0)"/><path class="cls-1" d="M648.21,241.38c17.26,0,35.59,3.33,52.25-2.73,17.06-6.2,19.41-18.18,19.41-34.52,0-8.37-2.76-17.9-11.27-21.72-15-6.7-27.28,8.56-35.92,18.78-14.2,16.81-25.58,36.76-30,58.48" transform="translate(-0.01 0)"/><path class="cls-2" d="M778.49,217c-11.42,27.12-21.61,47.81-45,65.48-18.55,14-52.62,29.67-76.76,12.08v-0.08c-13.72-10-15.61-26.46-12.67-41.79" transform="translate(-0.01 0)"/><path class="cls-1" d="M11.62,171.57s33.56,22.91,144.57-18.39,231-29.69,231-29.69" transform="translate(-0.01 0)"/><path class="cls-1" d="M260.74,11.62S195.21,157.38,172.6,229.47c-4.46,14.21-8.69,28.47-9.82,43.41-0.68,9-.87,19.9,4.37,27.71,12.41,18.51,41.14,4.41,54.07-6.24,19.18-15.8,33.75-37.25,46-59.2" transform="translate(-0.01 0)"/><path class="cls-1" d="M358.62,181.28c-8.34,17.66-25.29,57.69-36.27,82.2" transform="translate(-0.01 0)"/><path class="cls-1" d="M415.25,182.58c-9,19.8-32.88,79.43-43.59,103.71h0a27.14,27.14,0,1,1-49.26-22.81" transform="translate(-0.01 0)"/><path class="cls-1" d="M267.87,300.28c14.89,6.9,27.39-8.21,36.16-18.32,14.42-16.62,26-36.42,30.75-58.08A94.81,94.81,0,0,0,337,205c0.12-9-2.52-17.94-11-21.85h0c-14.89-6.9-27.39,8.21-36.16,18.32-14.42,16.62-26,36.42-30.75,58.08a94.81,94.81,0,0,0-2.18,18.84c-0.12,9,2.52,17.94,11,21.85" transform="translate(-0.01 0)"/><path class="cls-1" d="M396.39,228a155.11,155.11,0,0,1,18.08-26.3c8.64-10.22,20.94-25.49,35.92-18.78,8.52,3.81,11.27,12.76,11.27,21.71,0,19.62-9.19,36.49-16.54,54.27q-2.94,7.12-5.87,14.26" transform="translate(-0.01 0)"/><path class="cls-3" d="M164.76,422.14c91.47-38.27,190.69-50.51,289.15-51.8,101.53-1.34,202.75,8.26,304,14.5,59.29,3.65,121.41,9.9,179.52-5.76,14.42-3.89,8.3-26.31-6.18-22.4-51.1,13.77-105.5,8.87-157.69,5.86-50.44-2.91-100.82-6.84-151.25-10-101.07-6.35-202.94-9.81-303.52,4.46-54.89,7.78-109,21.33-160.19,42.75-5.78,2.42-9.93,7.69-8.11,14.29,1.5,5.46,8.47,10.55,14.29,8.11h0Z" transform="translate(-0.01 0)"/><circle class="cls-3" cx="924.99" cy="300.91" r="15.12"/></svg>