<svg id="Layer_1" data-name="Layer 1" xmlns="http://www.w3.org/2000/svg" viewBox="0 0 206 256"><defs><style>.cls-1{fill:none;stroke:#222;stroke-linecap:round;stroke-linejoin:round;stroke-width:6px;}</style></defs><title>telephone-grey</title><path class="cls-1" d="M106.79,322.1a8,8,0,0,0,11.4-11.37l-6.67-6.65A35,35,0,1,1,161,254.64L218,311.43a48.41,48.41,0,0,0,68.81.42,48.14,48.14,0,0,0-.36-68.58l0,0-4.66-4.65,0,0,5.1-5.58c2.68-4.79,3.64-11.18,2-16L288,214.33c-2.09-6.19-8.94-12.66-15.24-14.36l-23.3-6.38c-6.33-1.7-15.33.6-20,5.21l-8.42,8.42a89.36,89.36,0,0,1-62.93-62.8l8.44-8.42c4.63-4.62,6.93-13.6,5.19-19.88l-6.33-23.26c-1.73-6.3-8.22-13.13-14.42-15.19l-2.66-.9c-6.22-2.06-15.06,0-19.69,4.63L116.06,94c-2.25,2.23-3.68,8.62-3.68,8.67A148.63,148.63,0,0,0,262.57,252.86c0.2,0,6.78-1.4,9.05-3.63" transform="translate(-97.94 -73)"/><path class="cls-1" d="M252.2,243.34" transform="translate(-97.94 -73)"/></svg>