<svg id="Layer_1" data-name="Layer 1" xmlns="http://www.w3.org/2000/svg" viewBox="0 0 171.1 139.05"><defs><style>.cls-1{fill:#f99224;}</style></defs><title>twitter-orange</title><path class="cls-1" d="M171.1,16.46A70.17,70.17,0,0,1,150.94,22,35.2,35.2,0,0,0,166.38,2.57a70.28,70.28,0,0,1-22.3,8.5,35.14,35.14,0,0,0-59.82,32A99.66,99.66,0,0,1,11.91,6.43,35.14,35.14,0,0,0,22.77,53.3a35,35,0,0,1-15.9-4.39v0.44A35.12,35.12,0,0,0,35,83.77a35.19,35.19,0,0,1-15.85.6A35.14,35.14,0,0,0,52,108.75a70.43,70.43,0,0,1-43.6,15A71.46,71.46,0,0,1,0,123.26a99.36,99.36,0,0,0,53.81,15.81c64.57,0,99.85-53.51,99.85-99.9q0-2.28-.1-4.54A71.34,71.34,0,0,0,171.1,16.46Z" transform="translate(0 -0.02)"/></svg>