<svg id="Layer_1" data-name="Layer 1" xmlns="http://www.w3.org/2000/svg" viewBox="0 0 24.61 20"><defs><style>.cls-1{fill:#222;}</style></defs><title>twitter-grey</title><path class="cls-1" d="M97.86,61.89a10.09,10.09,0,0,1-2.9.8,5.06,5.06,0,0,0,2.22-2.79A10.11,10.11,0,0,1,94,61.11a5.05,5.05,0,0,0-8.6,4.6A14.33,14.33,0,0,1,75,60.45a5.05,5.05,0,0,0,1.56,6.74,5,5,0,0,1-2.29-.63v0.06a5.05,5.05,0,0,0,4,5,5.06,5.06,0,0,1-2.28.09,5.05,5.05,0,0,0,4.72,3.51,10.13,10.13,0,0,1-6.27,2.16,10.28,10.28,0,0,1-1.21-.07,14.35,14.35,0,0,0,22.1-12.1q0-.33,0-0.65A10.26,10.26,0,0,0,97.86,61.89Z" transform="translate(-73.24 -59.53)"/></svg>