<svg id="Layer_1" data-name="Layer 1" xmlns="http://www.w3.org/2000/svg" viewBox="0 0 171.1 139.05"><defs><style>.cls-1{fill:#222;}</style></defs><title>twitter-grey</title><path class="cls-1" d="M238.44,105.39a70.17,70.17,0,0,1-20.16,5.53A35.2,35.2,0,0,0,233.72,91.5,70.28,70.28,0,0,1,211.42,100a35.14,35.14,0,0,0-59.82,32A99.66,99.66,0,0,1,79.25,95.36a35.14,35.14,0,0,0,10.86,46.87,35,35,0,0,1-15.9-4.39c0,0.15,0,.29,0,0.44a35.12,35.12,0,0,0,28.16,34.42,35.19,35.19,0,0,1-15.85.6,35.14,35.14,0,0,0,32.79,24.38,70.43,70.43,0,0,1-43.6,15,71.46,71.46,0,0,1-8.37-.49A99.36,99.36,0,0,0,121.15,228C185.72,228,221,174.49,221,128.1q0-2.28-.1-4.54A71.34,71.34,0,0,0,238.44,105.39Z" transform="translate(-67.34 -88.93)"/></svg>