<svg id="Layer_1" data-name="Layer 1" xmlns="http://www.w3.org/2000/svg" viewBox="0 0 227.42 153.28"><defs><style>.cls-1{fill:#f99224;}</style></defs><title>wiggle-orange</title><path class="cls-1" d="M90.24,153.28c-6.18,0-7.66-5.44-10.88-74.91-1-21-2.22-48-4.2-62.3-1.24,9.89-2.22,25.71-3,38.32-2.72,47.47-4.2,59.33-11.62,59.33-7.91,0-9.64-11.37-11.37-23.24-0.74-5.44-2-14.34-3.71-16.32-1.73.49-3.21,5.44-4.2,8.9-1.73,6.18-3.71,13.35-10.38,13.35-5.44,0-7.91-3-9.39-4.7S19.28,89,16.07,89H3.71a3.71,3.71,0,1,1,0-7.42H16.07c6.67,0,9.15,3.21,10.88,5.19C28.19,88.25,28.68,89,31,89c1.24-.49,2.72-5.44,3.21-7.91,2-6.43,4.2-14.34,11.62-14.34,7.66,0,9.15,10.38,10.88,22.5,0.74,4.45,1.73,12.36,3.21,15.57,2.47-7.91,4-33.62,4.94-51.17C67.24,10.14,68.48,0,75.15,0c6.43,0,7.91,6.18,11.37,77.87,1,19.28,2.22,43.76,3.71,57.85,1.48-11.37,2.47-29.17,3.21-43.26,3.46-54.64,4.94-62.79,11.62-62.79,6.92,0,8.16,11.12,10.38,43.26,1,13.35,2.47,32.63,4.7,39.31,1.48-4.2,2.47-14.09,3.21-20.52,1.73-16.81,3-29.91,11.37-29.91,8.16,0,9.39,10.14,10.63,19.78,0.74,5.19,1.73,14.83,4.2,14.83S153,91.47,154,85c1.24-7.17,2.72-15.82,10.38-15.82S174.27,76.6,175.75,82c1,3,2,6.92,3.46,6.92,2.22,0,3.21-1.48,5.19-4.94,1.73-3.21,4.2-7.42,9.64-7.42a12.78,12.78,0,0,1,8.41,3,9.1,9.1,0,0,0,6.43,2h14.83a3.71,3.71,0,0,1,0,7.42H208.9c-5.93,0-8.65-2-10.63-3.46a6.24,6.24,0,0,0-4.2-1.48c-1,0-1.73,1.24-3.21,3.71-2,3.46-4.94,8.65-11.62,8.65-6.92,0-9.15-7.17-10.63-12.11-1.48-5.19-2.47-7.66-4.2-7.66-1.48,0-2.47,6.43-3,9.64-1.24,7.42-3,17.55-11.87,17.55S139.16,92.49,137.92,82.6c-0.49-4.2-1.48-11.62-3-13.1-2.22,2.72-3.46,15.33-4.2,23-1.73,16.56-3,28.68-10.88,28.68-7.66,0-9.15-12.36-11.87-47.71-0.74-9.89-1.73-22.5-3-30.16-1.73,11.12-3,32.88-4.2,49.69C97.9,145.37,96.42,153.28,90.24,153.28Z" transform="translate(0)"/></svg>