<svg id="Layer_1" data-name="Layer 1" xmlns="http://www.w3.org/2000/svg" viewBox="0 0 795.6 75.75"><defs><style>.cls-1{fill:#222;}</style></defs><title>wiggly-line</title><path class="cls-1" d="M96.08,327.17c91.47-38.27,190.69-50.51,289.15-51.8,101.53-1.34,202.75,8.26,304,14.5,59.29,3.65,121.41,9.9,179.52-5.76,14.42-3.89,8.3-26.31-6.18-22.4-51.1,13.77-105.5,8.87-157.69,5.86-50.44-2.91-100.82-6.84-151.25-10C452.55,251.2,350.68,247.74,250.1,262c-54.89,7.78-109,21.33-160.19,42.75-5.78,2.42-9.93,7.69-8.11,14.29,1.5,5.46,8.47,10.55,14.29,8.11h0Z" transform="translate(-81.36 -252.04)"/></svg>