<svg id="Layer_1" data-name="Layer 1" xmlns="http://www.w3.org/2000/svg" viewBox="0 0 443.59 43.57"><defs><style>.cls-1{fill:#222;}</style></defs><title>wiggly-line2</title><path class="cls-1" d="M572.08,254.1a6.05,6.05,0,0,1-7.48,5.9c-10.51-2.62-17.12-10.51-21.81-17-6.43-8.57-11.43-13.57-20-13.57-9.29,0-13.57,5-20,13.57-6.43,7.86-14.29,17.86-29.29,17.86s-22.86-10-29.29-17.86c-6.43-8.57-11.43-13.57-20-13.57-9.29,0-13.57,5-20,13.57-6.43,7.86-14.29,17.86-29.29,17.86s-22.86-10-29.29-17.86c-6.43-8.57-11.43-13.57-20-13.57-9.29,0-13.57,5-20,13.57-6.43,7.86-14.29,17.86-29.29,17.86s-22.86-10-29.29-17.86c-6.43-8.57-11.43-13.57-20-13.57-9.29,0-13.57,5-20,13.57-6.43,7.86-14.29,17.86-29.29,17.86s-22.86-10-29.29-17.86c-5.18-6.91-9.44-11.5-15.38-13a6.09,6.09,0,0,1-4.62-5.88h0a6,6,0,0,1,7.49-5.9c10.31,2.64,16.53,10.51,21.79,16.94,6.43,8.57,11.43,13.57,20,13.57,9.29,0,13.57-5,20-13.57,6.43-7.86,14.29-17.86,29.29-17.86s22.86,10,29.29,17.86c6.43,8.57,11.43,13.57,20,13.57,9.29,0,13.57-5,20-13.57,6.43-7.86,14.29-17.86,29.29-17.86s22.86,10,29.29,17.86c6.43,8.57,11.43,13.57,20,13.57,9.29,0,13.57-5,20-13.57,6.43-7.86,14.29-17.86,29.29-17.86s22.86,10,29.29,17.86c6.43,8.57,11.43,13.57,20,13.57,9.29,0,13.57-5,20-13.57,6.43-7.86,14.29-17.86,29.29-17.86s23.57,10,29.29,17.86c5.18,6.91,9.44,11.5,15.38,13a6.09,6.09,0,0,1,4.62,5.88h0Z" transform="translate(-128.49 -217.33)"/></svg>