<?xml version="1.0" standalone="no"?>
<!DOCTYPE svg PUBLIC "-//W3C//DTD SVG 1.1//EN" "http://www.w3.org/Graphics/SVG/1.1/DTD/svg11.dtd" >
<svg xmlns="http://www.w3.org/2000/svg">
<metadata></metadata>
<defs>
<font id="questamedium" horiz-adv-x="1105" >
<font-face units-per-em="2048" ascent="1536" descent="-512" />
<missing-glyph horiz-adv-x="462" />
<glyph unicode="&#xfb01;" horiz-adv-x="1282" d="M51 0v80h158v766h-158v80h158v116q0 211 112.5 333t344.5 122q167 0 267.5 -63.5t100.5 -157.5q0 -68 -57 -107.5t-150 -35.5q7 46 7 92q0 200 -179 200q-121 0 -169 -84t-48 -270v-145h652v-846h155v-80h-536v80h151v766h-422v-766h160v-80h-547z" />
<glyph unicode="&#xfb02;" horiz-adv-x="1302" d="M51 0v80h158v766h-158v80h158v131q0 205 111 322.5t346 117.5q57 0 120.5 -6.5t98.5 -13.5l35 -7h194v-1390h158v-80h-543v80h156v1155q0 190 -215 190q-118 0 -175 -71.5t-57 -233.5v-194h260v-80h-260v-766h164v-80h-551z" />
<glyph unicode="&#xfb03;" horiz-adv-x="1982" d="M51 0v80h158v766h-158v80h158v151q0 77 22 143.5t67 120t122 84.5t178 31q134 0 207.5 -50t73.5 -122q0 -61 -50 -100.5t-143 -36.5q4 37 4 104q0 66 -22.5 99.5t-83.5 33.5q-83 0 -114.5 -66t-31.5 -202v-190h471v116q0 211 107 333t327 122q160 0 255.5 -63.5 t95.5 -157.5q0 -68 -57 -107.5t-150 -35.5q6 39 6 92q0 200 -158 200q-109 0 -152.5 -84t-43.5 -270v-145h651v-846h156v-80h-537v80h152v766h-422v-766h159v-80h-546v80h157v766h-471v-766h174v-80h-561z" />
<glyph unicode="&#xfb04;" horiz-adv-x="2011" d="M51 0v80h158v766h-158v80h158v151q0 77 22 143.5t67 120t122 84.5t178 31q134 0 207.5 -50t73.5 -122q0 -61 -50 -100.5t-143 -36.5q4 37 4 104q0 66 -22.5 99.5t-83.5 33.5q-83 0 -114.5 -66t-31.5 -202v-190h471v131q0 205 111 322.5t346 117.5q60 0 126 -6.5 t102 -13.5l36 -7h195v-1390h155v-80h-540v80h155v1155q0 190 -225 190q-118 0 -174.5 -71.5t-56.5 -233.5v-194h260v-80h-260v-766h164v-80h-551v80h157v766h-471v-766h174v-80h-561z" />
<glyph horiz-adv-x="2048" />
<glyph horiz-adv-x="2048" />
<glyph unicode="&#xd;" horiz-adv-x="2048" />
<glyph unicode=" "  horiz-adv-x="462" />
<glyph unicode="&#x09;" horiz-adv-x="462" />
<glyph unicode="&#xa0;" horiz-adv-x="462" />
<glyph unicode="!" horiz-adv-x="581" d="M254 463q-100 684 -100 778q0 66 39.5 103.5t97.5 37.5q59 0 97 -37t38 -104q0 -42 -24 -236.5t-48 -368.5l-24 -173h-76zM139 131q0 62 45.5 107t106.5 45q62 0 107.5 -44.5t45.5 -105.5q0 -63 -45.5 -108t-107.5 -45q-60 0 -106 45t-46 106z" />
<glyph unicode="&#x22;" horiz-adv-x="751" d="M508 922q-72 354 -72 458q0 52 33.5 81.5t75.5 29.5q43 0 74.5 -29.5t31.5 -81.5q0 -46 -16.5 -160.5t-33.5 -205.5l-17 -92h-76zM172 922q-72 354 -72 458q0 52 33 81.5t76 29.5t74.5 -29.5t31.5 -81.5q0 -46 -16.5 -160.5t-33.5 -205.5l-17 -92h-76z" />
<glyph unicode="#" horiz-adv-x="1333" d="M131 694l31 142h270l94 434h150l-94 -434h278l94 434h150l-94 -434h258l-31 -142h-256l-53 -245h274l-33 -142h-270l-92 -430h-152l93 430h-279l-92 -430h-152l92 430h-254l33 142h252l53 245h-270zM551 694l-51 -245h278l51 245h-278z" />
<glyph unicode="$" d="M145 -12q11 122 11 237v154h94v-76q0 -82 75 -156.5t189 -91.5v396q-153 57 -215 95q-147 92 -155 254q-1 11 -1 21q0 139 96 228t275 96v145h88v-145q136 -13 217 -94l51 73h82q-39 -161 -39 -233v-121h-94v86q0 69 -61 131t-156 76v-399q157 -54 216 -87 q152 -83 169 -227q2 -20 2 -41q0 -138 -102.5 -233.5t-284.5 -102.5v-145h-88v145q-160 16 -254 113l-35 -98h-80zM801 211q0 75 -52 122.5t-147 84.5v-367q88 6 143.5 47.5t55.5 112.5zM326 903q0 -76 49 -123t139 -84v369q-84 -8 -136 -49.5t-52 -112.5z" />
<glyph unicode="%" horiz-adv-x="1626" d="M393 721q-137 0 -233.5 95t-96.5 231q0 138 96.5 233.5t233.5 95.5t233.5 -95.5t96.5 -233.5q0 -136 -96.5 -231t-233.5 -95zM311 0l848 1354h162l-848 -1354h-162zM393 854q74 0 128 58t54 135q0 78 -53.5 136t-128.5 58t-128.5 -58t-53.5 -136q0 -77 54 -135t128 -58z M903 305q0 136 96.5 231t233.5 95t233.5 -95t96.5 -231q0 -138 -96.5 -234t-233.5 -96t-233.5 96t-96.5 234zM1051 305q0 -78 53.5 -136t128.5 -58t128.5 58t53.5 136q0 77 -54 135t-128 58t-128 -58t-54 -135z" />
<glyph unicode="&#x26;" horiz-adv-x="1462" d="M119 362q0 249 262 392q-105 142 -105 293q0 157 103.5 246t286.5 89q155 0 247.5 -60.5t92.5 -156.5q0 -76 -58 -119t-151 -38q12 86 12 122q0 173 -152 173q-87 0 -129.5 -52t-42.5 -135q0 -150 133 -313l377 -484q80 150 80 351v57h-186v84h465v-84h-183v-57 q0 -248 -112 -430l74 -93q49 -59 90 -59q47 0 67.5 35t20.5 84q0 30 -11 59l89 19q12 -44 12 -86q0 -96 -58 -162t-180 -66q-73 0 -129.5 24.5t-126.5 86.5q-59 -44 -146 -77.5t-190 -33.5q-127 0 -228 45t-162.5 135t-61.5 211zM653 88q99 0 189 64l-406 528 q-96 -84 -96 -217q0 -64 20.5 -129t58 -120.5t99 -90.5t135.5 -35z" />
<glyph unicode="'" horiz-adv-x="415" d="M172 922q-72 354 -72 460q0 51 33 80t76 29t74.5 -29t31.5 -80q0 -47 -16.5 -162t-33.5 -206l-17 -92h-76z" />
<glyph unicode="(" horiz-adv-x="626" d="M338 2q23 -79 57.5 -151.5t67 -120t62 -83t47.5 -51.5l18 -16l-70 -67q-9 8 -25 22.5t-62 64.5t-87.5 105.5t-92.5 144.5t-88 182t-62 217t-25 251q0 128 24.5 252.5t63.5 220t86 181.5t94 146.5t86 105t64 66.5l24 21l70 -68q-7 -6 -19 -17.5t-45.5 -51.5t-64 -86 t-65.5 -121t-58 -156q-18 -62 -27 -151.5t-10.5 -154t-1.5 -189.5t1.5 -190t10.5 -154.5t27 -151.5z" />
<glyph unicode=")" horiz-adv-x="626" d="M289 2q18 62 27 151.5t10.5 154.5t1.5 190t-1.5 189.5t-10.5 154t-27 151.5q-23 81 -57.5 155t-67 122.5t-62 85t-47.5 52.5l-18 17l69 68q9 -8 25 -22.5t62 -64.5t88 -106t93 -145t88 -183t62 -219t25 -253q0 -127 -24.5 -250t-63.5 -218.5t-86.5 -181t-94.5 -145.5 t-86 -104.5t-64 -66.5l-24 -21l-69 67q7 6 19 17t45.5 50t64 84t65.5 118.5t58 152.5z" />
<glyph unicode="*" horiz-adv-x="1138" d="M549 1057q-76 248 -76 342q0 38 28 65t68 27q39 0 67 -27t28 -65q0 -42 -18.5 -127.5t-37.5 -149.5l-18 -65h-41zM631 995l-13 39q216 149 302 178q37 12 71 -6t45 -55q12 -39 -4 -74t-53 -45q-39 -13 -126 -22t-155 -12zM158 1030q-36 10 -53 46t-5 73q12 38 45.5 55.5 t71.5 5.5q39 -13 114.5 -56.5t130.5 -80.5l56 -37l-12 -41q-260 6 -348 35zM727 618q-24 34 -59 114t-58 143l-24 63l35 23q207 -158 262 -232q23 -31 15.5 -69t-38.5 -60q-32 -25 -70 -20t-63 38zM281 598q-33 24 -40 61t17 70q24 34 88.5 92t117.5 99l52 41l35 -23 q-86 -246 -139 -322q-23 -32 -62 -37t-69 19z" />
<glyph unicode="+" d="M94 422v147h383v416h156v-416h379v-147h-379v-422h-156v422h-383z" />
<glyph unicode="," horiz-adv-x="532" d="M96 115q10 73 51 118.5t113 45.5q76 0 122 -59t46 -144q0 -129 -71 -227t-207 -183l-44 64q179 111 179 229q0 59 -48.5 100t-140.5 56z" />
<glyph unicode="-" horiz-adv-x="765" d="M125 399v179h516v-179h-516z" />
<glyph unicode="." horiz-adv-x="503" d="M100 127q0 62 44.5 107t107.5 45q61 0 106 -45t45 -107t-45 -107t-106 -45q-63 0 -107.5 45t-44.5 107z" />
<glyph unicode="/" horiz-adv-x="921" d="M41 -467l682 1937h158l-680 -1937h-160z" />
<glyph unicode="0" horiz-adv-x="1097" d="M98 506q0 230 121 371t336 141q211 0 327.5 -133.5t116.5 -372.5q0 -158 -51 -279t-153.5 -191.5t-243.5 -70.5q-210 0 -331.5 145.5t-121.5 389.5zM590 59q74 0 131.5 38.5t91.5 102.5t51 140t17 158q0 86 -17 161.5t-51 136.5t-91.5 96.5t-131.5 35.5q-66 0 -116 -36 t-79 -98t-43 -136.5t-14 -159.5q0 -119 24 -214.5t82.5 -160t145.5 -64.5z" />
<glyph unicode="1" horiz-adv-x="923" d="M96 0v80h281v790h-279v80q113 0 239 15t195 30l70 15v-930h277v-80h-783z" />
<glyph unicode="2" horiz-adv-x="1087" d="M74 0v72q81 54 128 85.5t106.5 73t91 65.5t71.5 57.5t59.5 55t43.5 51.5t34 54t21 55t14.5 62t5.5 69q0 134 -39.5 190t-120.5 56q-54 0 -90.5 -20t-54 -49.5t-23.5 -74.5t-4 -83.5t9 -87.5q-92 -3 -147.5 35t-55.5 122q0 101 98.5 165.5t278.5 64.5q193 0 292 -77 t99 -226q0 -135 -138 -264q-83 -79 -301 -222q-14 -9 -44 -28q-45 -30 -68 -45h446q42 0 70 42t84 177h72q-46 -199 -64 -375h-874z" />
<glyph unicode="3" horiz-adv-x="999" d="M80 -123q0 67 44 105.5t136 35.5q-8 -74 -8 -102q0 -99 46.5 -143.5t145.5 -44.5q131 0 178.5 72t47.5 220q0 166 -66.5 237t-245.5 71h-32v84h32q151 0 214 68t63 229q0 132 -40 184.5t-136 52.5q-93 0 -128.5 -49.5t-35.5 -151.5q0 -45 6 -98q-88 -2 -144.5 36 t-56.5 110q0 100 100.5 162.5t266.5 62.5q188 0 299 -82t111 -234q0 -125 -79 -202.5t-231 -120.5v-4q78 -12 137 -33.5t107.5 -58t74 -95t25.5 -135.5q0 -182 -126 -289.5t-336 -107.5q-157 0 -263 58.5t-106 162.5z" />
<glyph unicode="4" horiz-adv-x="1071" d="M41 29v108l645 862h111v-829h211v-141h-211v-346h-211v346h-545zM174 170h412v545z" />
<glyph unicode="5" horiz-adv-x="993" d="M737 848h-399l-16 -408h96q71 0 137 -11.5t130 -39.5t110.5 -70t75 -108t28.5 -148q0 -175 -121 -291t-338 -116q-96 0 -176 23.5t-131 73.5t-51 118q0 67 47 106t133 39q-6 -47 -6 -82q0 -109 45.5 -158.5t140.5 -49.5q121 0 169 83t48 244q0 312 -260 312h-264l25 624 h571l35 80h84q-23 -145 -23 -233v-142h-90v154z" />
<glyph unicode="6" horiz-adv-x="1107" d="M111 637q0 104 10.5 193.5t34 174t63.5 150t95 115t133 76t174 26.5q160 0 255 -67t95 -158q0 -69 -53.5 -106t-147.5 -35q9 60 6 113.5t-17.5 93.5t-53 63.5t-99.5 23.5q-55 0 -96.5 -19t-69.5 -58.5t-46 -87.5t-28.5 -118t-14.5 -137.5t-5 -158.5q41 60 110 91.5 t154 31.5q78 0 145.5 -23.5t123 -71.5t88 -132t32.5 -195q0 -98 -25 -176t-66.5 -128.5t-99 -84t-118.5 -48t-129 -14.5q-450 0 -450 666zM346 539q3 -266 48.5 -380t168.5 -114q113 0 159 95.5t46 287.5q0 177 -40 252.5t-138 75.5q-101 0 -168.5 -67t-75.5 -150z" />
<glyph unicode="7" horiz-adv-x="952" d="M254 -317q38 275 164 535.5t358 608.5h-420q-55 0 -88.5 -22.5t-64 -84.5t-66.5 -188h-74q31 191 31 355v100h819v-84q-191 -338 -281.5 -614t-90.5 -606h-287z" />
<glyph unicode="8" horiz-adv-x="1056" d="M106 307q0 67 22 124.5t65 103t84 77t100 66.5q-53 35 -90.5 67.5t-71.5 75.5t-51 96t-17 115q0 153 115 246.5t291 93.5q166 0 261 -86.5t95 -208.5q0 -44 -14.5 -85.5t-34.5 -71.5t-54.5 -62.5t-61 -52.5t-66.5 -47q49 -32 84 -58t74 -63t63 -74.5t39.5 -87 t15.5 -104.5q0 -168 -130 -284t-318 -116q-59 0 -115.5 12.5t-108.5 39.5t-91 65.5t-62 95t-23 123.5zM592 811q42 31 60 44.5t51.5 44t48.5 52.5t28 54.5t13 66.5q0 101 -67.5 159t-166.5 58t-158 -48t-59 -128q0 -49 19 -92t56.5 -80.5t77 -66.5t97.5 -64zM223 313 q0 -122 84.5 -191t198.5 -69q115 0 184.5 62.5t69.5 165.5q0 30 -6 58t-20 53.5t-27.5 46t-39.5 43.5t-43.5 38t-52 38t-53 34t-57.5 35q-34 -23 -46 -32t-41.5 -31t-41.5 -34t-34.5 -34t-32 -39.5t-21.5 -41.5t-16.5 -49t-4.5 -53z" />
<glyph unicode="9" horiz-adv-x="1067" d="M119 -127q0 68 51.5 105t142.5 34q-9 -55 -5 -106.5t18 -91t52.5 -63t98.5 -23.5q55 0 97 17t70 52.5t46.5 79.5t29 110.5t14.5 131.5t5 155q-89 -114 -260 -114q-61 0 -116.5 14t-105.5 46t-87 79.5t-58.5 119t-21.5 159.5q0 95 25 170.5t67 125t99.5 82t118.5 46.5 t128 14q447 0 447 -643q0 -122 -15.5 -225t-52.5 -195.5t-94 -157t-145.5 -102t-202.5 -37.5q-163 0 -254.5 62t-91.5 155zM500 248q93 0 156.5 55t82.5 133q-1 109 -6.5 186t-20 141t-38.5 101.5t-61 57.5t-89 20q-110 0 -155 -93.5t-45 -277.5q0 -172 39.5 -247.5 t136.5 -75.5z" />
<glyph unicode=":" horiz-adv-x="552" d="M274 645q-61 0 -105 45t-44 107t44 106.5t105 44.5q63 0 108.5 -44.5t45.5 -106.5t-45.5 -107t-108.5 -45zM125 127q0 62 44 107t105 45q63 0 108.5 -45t45.5 -107t-45.5 -107t-108.5 -45q-61 0 -105 45t-44 107z" />
<glyph unicode=";" horiz-adv-x="571" d="M289 645q-61 0 -106.5 45.5t-45.5 106.5t45 106t107 45q63 0 108 -44.5t45 -106.5t-45 -107t-108 -45zM113 115q10 73 50.5 118.5t112.5 45.5q76 0 122 -59t46 -144q0 -129 -70.5 -227.5t-205.5 -182.5l-45 64q178 111 178 229q0 60 -48 100.5t-140 55.5z" />
<glyph unicode="&#x3c;" d="M76 432v135l866 457l62 -141l-748 -383l748 -404l-62 -139z" />
<glyph unicode="=" d="M94 618v148h918v-148h-918zM94 225v148h918v-148h-918z" />
<glyph unicode="&#x3e;" d="M102 96l748 404l-748 383l62 141l866 -457v-135l-866 -475z" />
<glyph unicode="?" horiz-adv-x="983" d="M528 424q-82 0 -136 46.5t-54 127.5q0 45 17.5 81t45.5 61.5t62.5 49.5t68.5 52t62 61t45.5 84t17.5 115q0 198 -182 198q-104 0 -153.5 -65t-49.5 -182q0 -54 13 -111q-96 -8 -159 42t-63 142q0 121 115.5 188.5t302.5 67.5q204 0 321.5 -77t117.5 -211 q0 -64 -26 -116.5t-67 -88t-91 -65t-100.5 -53t-91.5 -47t-67 -53.5t-26 -65q0 -39 24.5 -63.5t63.5 -24.5q33 0 55 10l20 -88q-39 -16 -86 -16zM330 131q0 63 45.5 107.5t107.5 44.5t107 -44.5t45 -107.5q0 -61 -45 -106t-107 -45t-107.5 45t-45.5 106z" />
<glyph unicode="@" horiz-adv-x="1703" d="M94 428q0 127 36.5 248t106.5 222.5t165 178.5t220.5 120.5t264.5 43.5q207 0 369.5 -92.5t250.5 -251t88 -354.5q0 -75 -14 -149.5t-45 -146t-75 -126t-109.5 -88t-143.5 -33.5q-91 0 -141 50.5t-53 150.5h-6q-83 -201 -248 -201q-47 0 -92.5 14.5t-89 49t-76.5 84.5 t-53.5 127t-20.5 171q0 117 32 208t86.5 146t123 83t145.5 28q153 0 221 -135q79 58 107 135h78q-15 -175 -15 -243v-488q0 -41 13 -58.5t43 -17.5q23 0 51 12.5t60 43.5t58 76.5t43 119t17 162.5q0 185 -70.5 327.5t-207.5 224t-322 81.5q-156 0 -287.5 -58t-219 -157 t-136.5 -229.5t-49 -274.5q0 -140 46.5 -263.5t132 -216.5t217 -147.5t292.5 -54.5q70 0 170 17v-91q-91 -16 -187 -16q-152 0 -280.5 43.5t-218.5 117.5t-153.5 172.5t-93.5 208.5t-30 226zM666 424q0 -332 120 -332q83 0 145 135t62 326q0 139 -43.5 207.5t-113.5 68.5 q-77 0 -123.5 -97.5t-46.5 -307.5z" />
<glyph unicode="A" horiz-adv-x="1331" d="M-35 0v80h174l465 1294h94l516 -1294h150v-80h-569v80h155l-143 358h-436l-129 -358h159v-80h-436zM578 1016l-177 -490h371z" />
<glyph unicode="B" horiz-adv-x="1316" d="M72 0v80h194v1194h-194v80h598q136 0 234 -25.5t154 -72t81.5 -104.5t25.5 -130q0 -110 -67 -194t-215 -123v-5q344 -62 344 -323q0 -377 -535 -377h-620zM516 739h141q130 0 190 57.5t60 204.5q0 145 -60.5 206t-191.5 61h-139v-529zM516 86h162q154 0 221.5 66.5 t67.5 218.5t-68.5 215t-224.5 63h-158v-563z" />
<glyph unicode="C" horiz-adv-x="1312" d="M98 678q0 328 170 516t480 188q234 0 350 -116l55 98h84q-39 -195 -39 -283v-145h-100v88q0 121 -92 196.5t-242 75.5q-97 0 -169.5 -36.5t-115 -94t-68.5 -142.5t-35 -168.5t-9 -184.5q0 -86 7 -158.5t23 -144t45.5 -126t72.5 -97t106 -65t143 -22.5q155 0 252.5 85 t130.5 239l98 -16q-19 -84 -53 -150.5t-92 -124t-150.5 -88.5t-214.5 -31q-156 0 -278.5 52.5t-200.5 147t-118 223t-40 284.5z" />
<glyph unicode="D" horiz-adv-x="1513" d="M72 0v80h194v1194h-194v80h643q189 0 325.5 -46t217 -134t118 -205.5t37.5 -270.5q0 -120 -21.5 -221.5t-72.5 -191t-130 -151.5t-199.5 -98t-274.5 -36h-643zM719 1268h-205v-1182h205q224 0 325 144t101 446q0 316 -99.5 454t-326.5 138z" />
<glyph unicode="E" horiz-adv-x="1284" d="M72 0v80h194v1194h-194v80h1112l-82 -418h-72l-12 248q-3 55 -14.5 69.5t-47.5 14.5h-440v-553h289v176h96v-461h-96v197h-289v-541h391q28 0 45 5t37 23.5t36.5 56.5t36.5 102.5t44 164.5h74q-2 -25 -4.5 -64.5t-7 -129t-3.5 -138.5v-106h-1093z" />
<glyph unicode="F" horiz-adv-x="1189" d="M72 0v80h194v1194h-194v80h1099l-81 -418h-70l-14 248q-3 55 -15 69.5t-47 14.5h-428v-553h299v176h94v-461h-94v197h-299v-547h211v-80h-655z" />
<glyph unicode="G" horiz-adv-x="1423" d="M98 676q0 217 69.5 373.5t216.5 244.5t364 88q233 0 366 -116l51 98h92q-40 -195 -40 -283v-145h-103v104q0 109 -101.5 182.5t-254.5 73.5q-108 0 -184 -41t-121 -123t-65.5 -194.5t-20.5 -265.5q0 -109 9.5 -196t34.5 -167.5t65 -134t104.5 -85.5t150.5 -32 q117 0 193.5 56.5t76.5 160.5v230h-235v88h610v-88h-133v-504h-90q-27 74 -68 129q-127 -158 -370 -158q-152 0 -270.5 51.5t-194 146t-114 222.5t-38.5 285z" />
<glyph unicode="H" horiz-adv-x="1703" d="M72 0v80h194v1194h-194v80h637v-80h-193v-551h672v551h-195v80h637v-80h-192v-1194h192v-80h-637v80h195v555h-672v-555h193v-80h-637z" />
<glyph unicode="I" horiz-adv-x="782" d="M72 0v80h194v1194h-194v80h637v-80h-193v-1194h193v-80h-637z" />
<glyph unicode="J" horiz-adv-x="745" d="M-74 -221q51 -1 93.5 6.5t73.5 20t55.5 37t40.5 48t27.5 61.5t17.5 69t9.5 79.5t4 84t0.5 91.5v998h-195v80h637v-80h-192v-1016q0 -62 -7 -118.5t-25 -115.5t-46.5 -108.5t-73.5 -93t-103 -72.5t-139 -44t-178 -11v84z" />
<glyph unicode="K" horiz-adv-x="1443" d="M926 1274v80h446v-80h-164l-424 -467l537 -727h137v-80h-596v80h152l-426 577h-72v-577h193v-80h-637v80h194v1194h-194v80h647v-80h-203v-526h86l481 526h-157z" />
<glyph unicode="L" horiz-adv-x="1193" d="M516 86h358q28 0 45 5t37 23.5t36.5 56.5t36.5 102.5t44 164.5h74q-2 -25 -4.5 -64.5t-6.5 -129t-3 -138.5v-106h-1061v80h194v1194h-194v80h637v-80h-193v-1188z" />
<glyph unicode="M" horiz-adv-x="1830" d="M76 0v80h194v1194h-204v80h505l349 -983l360 983h475v-80h-190v-1194h192v-80h-633v80h191v1096l-428 -1176h-94l-424 1169v-1089h194v-80h-487z" />
<glyph unicode="N" horiz-adv-x="1556" d="M92 0v80h193v1114q-38 45 -74.5 62.5t-116.5 17.5h-53v80h436l733 -957v877h-192v80h483v-80h-192v-1284h-95l-831 1077v-987h192v-80h-483z" />
<glyph unicode="O" horiz-adv-x="1480" d="M100 698q0 150 35.5 271.5t109.5 215.5t199.5 145.5t294.5 51.5q326 0 483.5 -176t157.5 -508q0 -163 -36 -292.5t-110.5 -228.5t-200 -152.5t-294.5 -53.5q-141 0 -250 34t-182 95t-119.5 152.5t-67 200.5t-20.5 245zM741 51q91 0 158.5 35t107.5 91t64 140t32.5 168.5 t8.5 190.5q0 96 -5.5 170.5t-19.5 149.5t-41 128t-67 95t-100 63t-138 21q-68 0 -122.5 -17.5t-93 -47t-67 -76t-45.5 -97t-27 -117.5t-13.5 -130t-3.5 -142q0 -82 3.5 -146.5t13.5 -131.5t27 -117t45.5 -95t67 -73.5t93 -45t122.5 -16.5z" />
<glyph unicode="P" horiz-adv-x="1239" d="M72 0v80h194v1194h-194v80h565q123 0 218 -20.5t157 -55t101.5 -85t56 -106t16.5 -122.5q0 -200 -128 -316.5t-349 -116.5l-72 5v84q24 -5 51 -5q236 0 236 349q0 74 -14 127t-48 94t-94 61.5t-147 20.5h-105v-1188h213v-80h-657z" />
<glyph unicode="Q" horiz-adv-x="1484" d="M301 -279q69 68 123.5 107.5t130.5 77.5q38 18 115.5 52.5t128.5 60.5t92 53q125 83 175 217.5t50 396.5q0 125 -10.5 218.5t-36.5 171.5t-68 127t-106.5 75.5t-151.5 26.5t-151 -27t-106 -77.5t-67 -133t-35.5 -182.5t-10.5 -236q0 -285 38.5 -412.5t141.5 -166.5 l-37 -68q-120 37 -201.5 96t-127 143t-64.5 180.5t-19 225.5q0 137 20.5 247t67 202.5t120 154.5t182.5 96.5t251 34.5q639 0 639 -692q0 -366 -185 -553q-97 -97 -285 -179l-132 -54v-6q63 -12 136.5 -43t127 -61t113.5 -53.5t103 -23.5q48 0 77 27t29 80q0 8 -3 26t-3 23 h84q6 -36 6 -63q0 -111 -64 -174.5t-202 -63.5q-81 0 -163 22.5t-146 54t-120.5 63.5t-105.5 54.5t-82 22.5q-78 0 -207 -125z" />
<glyph unicode="R" horiz-adv-x="1374" d="M72 0v80h194v1194h-194v80h606q491 0 491 -346q0 -122 -74 -209.5t-235 -122.5v-8q134 -40 201.5 -129.5t71.5 -237.5q4 -205 84 -205q26 0 49 30.5t32 53.5l72 -37q-8 -21 -20.5 -42.5t-38 -51.5t-69.5 -48.5t-99 -18.5q-266 0 -277 350q-6 164 -56.5 231.5t-137.5 67.5 h-156v-551h186v-80h-630zM516 719h148q131 0 187 63t56 205q0 149 -55.5 215t-187.5 66h-148v-549z" />
<glyph unicode="S" horiz-adv-x="1142" d="M125 -10q12 137 12 264v205h99v-131q0 -106 100 -188.5t254 -82.5q116 0 188 52t72 153q0 57 -24.5 102t-66.5 75.5t-96.5 56t-114.5 48.5t-119.5 48t-114 59.5t-96.5 78t-66.5 109t-24.5 146.5q0 175 114.5 286t325.5 111q65 0 119.5 -11t86 -26.5t54 -31t31.5 -26.5 l8 -11l54 88h84q-41 -186 -41 -264v-164h-99v127q0 98 -83 165.5t-218 67.5q-129 0 -191.5 -54.5t-62.5 -149.5q0 -65 31.5 -116t82.5 -81.5t116.5 -60t134 -52.5t134 -58t116.5 -76t82.5 -109t31.5 -154q0 -176 -119 -295t-331 -119q-68 0 -128.5 13.5t-98.5 32.5 t-65.5 38.5t-39.5 32.5l-12 14l-35 -112h-84z" />
<glyph unicode="T" horiz-adv-x="1347" d="M354 0v80h195v1188h-232q-48 0 -71.5 -18t-50 -86.5t-68.5 -229.5h-78q12 207 12 307v113h1246l-27 -420h-70l-51 192q-18 66 -32.5 95.5t-30 38t-45.5 8.5h-254v-1188h194v-80h-637z" />
<glyph unicode="U" horiz-adv-x="1562" d="M231 557v717h-194v80h639v-80h-193v-739q0 -123 16 -207t55 -147.5t108.5 -93.5t173.5 -30q389 0 389 453v764h-197v80h498v-80h-197v-768q0 -535 -508 -535q-163 0 -278 38t-183.5 114.5t-99 182.5t-29.5 251z" />
<glyph unicode="V" horiz-adv-x="1341" d="M942 1274v80h420v-80h-160l-469 -1294h-96l-518 1294h-170v80h592v-80h-160l375 -946l344 946h-158z" />
<glyph unicode="W" horiz-adv-x="2045" d="M1628 1274v80h436v-80h-161l-455 -1294h-94l-324 862l-321 -862h-93l-485 1294h-176v80h600v-80h-164l348 -936l240 641l-111 295h-172v80h598v-80h-166l345 -930l325 930h-170z" />
<glyph unicode="X" horiz-adv-x="1337" d="M31 0v80h166l358 555l-383 639h-162v80h592v-80h-153l262 -432l282 432h-153v80h432v-80h-166l-334 -516l414 -678h162v-80h-605v80h154l-281 471l-305 -471h154v-80h-434z" />
<glyph unicode="Y" horiz-adv-x="1320" d="M346 0v80h195v487l-412 707h-172v80h610v-80h-161l342 -586l319 586h-168v80h426v-80h-149l-385 -699v-495h192v-80h-637z" />
<glyph unicode="Z" horiz-adv-x="1292" d="M82 0v68l809 1200h-508q-25 0 -38 -2t-30.5 -12.5t-29 -31t-27.5 -58.5t-32.5 -93.5t-37.5 -138.5h-77q10 192 10 315v107h1067v-66l-817 -1202h551q30 0 45.5 4.5t35 21.5t34.5 56.5t34.5 104t44.5 169.5h80q-2 -25 -4.5 -65t-6.5 -130.5t-3 -140.5v-106h-1100z" />
<glyph unicode="[" horiz-adv-x="634" d="M170 -467v1937h412v-79h-217v-1778h217v-80h-412z" />
<glyph unicode="\" horiz-adv-x="921" d="M721 -467l-680 1937h158l682 -1937h-160z" />
<glyph unicode="]" horiz-adv-x="632" d="M53 -387h217v1778h-217v79h410v-1937h-410v80z" />
<glyph unicode="^" horiz-adv-x="1128" d="M68 408l424 958h143l426 -956l-162 -2l-338 753l-330 -753h-163z" />
<glyph unicode="_" horiz-adv-x="1269" d="M123 0h1024v-147h-1024v147z" />
<glyph unicode="`" horiz-adv-x="1024" d="M561 1075l-287 303q-28 31 -28 70q0 34 31.5 63t80.5 29q55 0 76 -49l178 -383z" />
<glyph unicode="a" horiz-adv-x="1044" d="M66 215q0 82 49 144t131.5 97t177 51.5t199.5 16.5v183q0 95 -33 135.5t-121 40.5q-90 0 -128 -41t-38 -129q0 -45 6 -95q-102 -4 -153.5 36t-51.5 106q0 90 99.5 142t279.5 52q196 0 282.5 -67.5t86.5 -224.5v-504q0 -74 41 -74q57 0 88 121l80 -25q-7 -32 -22 -64 t-40.5 -64t-67.5 -52t-93 -20q-75 0 -124.5 37t-62.5 110h-4q-109 -156 -289 -156q-120 0 -206 64t-86 180zM303 215q0 -70 28 -107.5t81 -37.5q75 0 143 70t68 149v149q-164 0 -242 -53.5t-78 -169.5z" />
<glyph unicode="b" horiz-adv-x="1130" d="M154 -25v1416h-172v79h401v-516q0 -36 -2 -77.5t-4 -64.5l-2 -24h4q46 80 117.5 123t183.5 43q183 0 277 -122t94 -343q0 -135 -35 -237.5t-94.5 -162t-132 -89t-154.5 -29.5q-104 0 -174 46.5t-105 103.5l-127 -146h-75zM375 440q0 -76 12 -140.5t37.5 -117.5t70 -83.5 t103.5 -30.5q69 0 114 37.5t71 131t26 248.5q0 200 -43.5 285.5t-140.5 85.5q-112 0 -181 -116.5t-69 -299.5z" />
<glyph unicode="c" horiz-adv-x="944" d="M80 461q0 252 118 372.5t326 120.5q96 0 175.5 -23t129.5 -72t50 -116q0 -72 -54 -116t-153 -41q8 55 8 106q0 103 -39 147t-117 44q-117 0 -162 -96t-45 -320q0 -221 51 -316.5t169 -95.5q98 0 163.5 57.5t85.5 161.5l91 -14q-24 -126 -113 -207.5t-248 -81.5 q-97 0 -175 28t-137 85.5t-91.5 153t-32.5 223.5z" />
<glyph unicode="d" horiz-adv-x="1171" d="M82 444q0 249 114 379.5t304 130.5q176 0 260 -127h4q-6 78 -6 150v414h-176v79h405v-1390h158v-80h-359l-12 166h-4q-91 -195 -311 -195q-128 0 -214 62t-124.5 166t-38.5 245zM508 68q79 0 139 58.5t90.5 154t30.5 211.5q0 170 -62.5 267t-170.5 97q-103 0 -158 -93 t-55 -310q0 -113 14 -191t41 -119t58.5 -58t72.5 -17z" />
<glyph unicode="e" horiz-adv-x="991" d="M80 461q0 131 32 227t91.5 153.5t138.5 85t180 27.5q387 0 387 -383v-106h-592v-33q0 -210 54.5 -293.5t173.5 -83.5q103 0 176.5 60t97.5 159l88 -16q-30 -121 -126 -204t-255 -83q-213 0 -329.5 119.5t-116.5 370.5zM319 551h365v65q0 133 -37 200t-129 67 q-99 0 -146.5 -84t-52.5 -248z" />
<glyph unicode="f" horiz-adv-x="714" d="M51 0v80h158v766h-158v80h158v176q0 179 102.5 287t302.5 108q132 0 219 -46.5t87 -125.5q0 -61 -53 -100.5t-150 -36.5q6 50 6 94q0 143 -121 143q-89 0 -126.5 -65.5t-37.5 -202.5v-231h248v-80h-248v-766h174v-80h-561z" />
<glyph unicode="g" horiz-adv-x="1034" d="M80 147q0 76 38.5 131t108.5 105q-102 83 -102 238q0 70 23.5 128.5t71 105t127 73t183.5 26.5q162 0 267 -65q43 48 43 145q0 43 -11 96q104 4 155.5 -34.5t51.5 -100.5q0 -106 -176 -159q70 -82 70 -205q0 -150 -102 -240t-306 -90q-139 0 -221 39q-84 -59 -84 -119 q0 -32 27 -52t72.5 -29t105 -13t125 -8.5t130.5 -12t124.5 -26.5t105 -48.5t72.5 -81.5t27 -122q0 -63 -20.5 -114.5t-57.5 -86t-82.5 -59.5t-101.5 -38.5t-109 -19.5t-109 -6q-124 0 -221.5 23t-156 70t-58.5 112q0 64 56 101t151 34q-26 -140 32.5 -202t205.5 -62 q69 0 125 9t102 29t72 55t26 83q0 57 -43 89.5t-112 44t-152 16t-166 14t-152 29.5t-112 69.5t-43 128.5zM522 371q97 0 141 63.5t44 194.5q0 256 -181 256q-94 0 -136 -67t-42 -200q0 -126 40.5 -186.5t133.5 -60.5z" />
<glyph unicode="h" horiz-adv-x="1208" d="M27 0v80h155v1311h-174v79h404v-581q0 -40 -3 -84t-5 -68l-3 -24h5q6 15 11 27t20.5 38.5t32 47t44.5 46t59.5 42.5t76.5 28.5t95 11.5q291 0 291 -290v-584h156v-80h-518v80h133v577q0 103 -27 147t-96 44q-70 0 -125 -49.5t-85.5 -125.5t-46 -154.5t-15.5 -149.5v-289 h133v-80h-518z" />
<glyph unicode="i" horiz-adv-x="634" d="M55 0v80h158v766h-176v80h403v-846h158v-80h-543zM176 1257q0 57 40.5 97.5t98.5 40.5q57 0 97.5 -40.5t40.5 -97.5t-40.5 -97t-97.5 -40q-58 0 -98.5 40t-40.5 97z" />
<glyph unicode="j" horiz-adv-x="561" d="M188 76v770h-174v80h404v-869q0 -58 -4.5 -109t-18.5 -109t-36 -105.5t-59.5 -92t-86.5 -74.5t-120.5 -47.5t-158.5 -15.5v82q66 2 111.5 22.5t73.5 55.5t43.5 98t20.5 134.5t5 179.5zM154 1257q0 57 40 97.5t97 40.5t97 -40.5t40 -97.5t-40 -97t-97 -40t-97 40t-40 97z " />
<glyph unicode="k" horiz-adv-x="1146" d="M27 0v80h155v1311h-174v79h404v-921h75l308 297h-136v80h420v-80h-155l-265 -256l385 -510h97v-80h-469v80h96l-279 385h-77v-385h120v-80h-505z" />
<glyph unicode="l" horiz-adv-x="604" d="M31 0v80h155v1311h-174v79h404v-1390h157v-80h-542z" />
<glyph unicode="m" horiz-adv-x="1861" d="M55 0v80h158v766h-176v80h389v-230h4q6 18 11.5 32t20 42.5t30.5 50.5t43.5 48.5t59 43.5t77 29t96.5 12q136 0 206.5 -66t72.5 -194h6q37 98 85 152q97 107 255 108q297 0 297 -290v-584h155v-80h-518v80h135v586q0 102 -28.5 143t-96.5 41t-123 -49.5t-86 -125.5 t-47 -155t-16 -149v-291h133v-80h-496v80h136v586q0 103 -28.5 143.5t-96.5 40.5q-67 0 -122 -49.5t-86.5 -124.5t-48 -154t-16.5 -149v-293h133v-80h-518z" />
<glyph unicode="n" horiz-adv-x="1236" d="M55 0v80h158v766h-176v80h389v-230h4q6 18 11.5 32t20 42.5t30.5 50.5t43.5 48.5t59 43.5t77 29t96.5 12q297 0 297 -290v-584h156v-80h-519v80h136v586q0 101 -28.5 142.5t-96.5 41.5q-69 0 -124 -50t-86 -126t-47 -155.5t-16 -149.5v-289h133v-80h-518z" />
<glyph unicode="o" horiz-adv-x="1081" d="M80 457q0 241 115 369t348 128q458 0 458 -485q0 -243 -120.5 -370.5t-337.5 -127.5q-228 0 -345.5 127t-117.5 359zM543 43q121 0 170 104.5t49 321.5q0 212 -49 313t-170 101t-172.5 -104.5t-51.5 -321.5q0 -209 51 -311.5t173 -102.5z" />
<glyph unicode="p" horiz-adv-x="1173" d="M31 -387h157v1233h-176v80h389v-146h5q89 174 309 174q192 0 285.5 -123t93.5 -339q0 -132 -34 -234.5t-93 -163.5t-132.5 -92t-158.5 -31q-175 0 -262 135h-4q6 -75 6 -159v-334h157v-80h-542v80zM408 457q0 -172 60 -280.5t175 -108.5q105 0 158 98.5t53 320.5 q0 108 -12.5 181.5t-38.5 114t-59 57t-80 16.5q-64 0 -114.5 -33t-80.5 -89.5t-45.5 -126.5t-15.5 -150z" />
<glyph unicode="q" horiz-adv-x="1120" d="M82 436q0 133 33.5 235t92 162.5t131 90.5t157.5 30q60 0 110 -16.5t83 -43t51.5 -48t31.5 -43.5l129 147h76v-1337h158v-80h-543v80h158v360l6 162h-4q-50 -81 -120 -122.5t-177 -41.5q-185 0 -279 122.5t-94 342.5zM510 68q80 0 137.5 65.5t83 159t25.5 199.5 q0 49 -5 94t-20 96t-38.5 88t-65 61.5t-95.5 24.5q-110 0 -160 -98t-50 -314q0 -200 44 -288t144 -88z" />
<glyph unicode="r" horiz-adv-x="931" d="M55 0v80h158v766h-176v80h389v-224h4q15 45 38.5 86t58 80t85.5 62.5t111 23.5q86 0 145.5 -43.5t59.5 -119.5q0 -71 -55 -116t-152 -42q4 39 4 108q0 107 -57 107q-56 0 -110 -72.5t-86 -179.5t-32 -207v-309h176v-80h-561z" />
<glyph unicode="s" horiz-adv-x="925" d="M90 -18q12 106 12 194v168h95v-68q0 -87 77.5 -156t200.5 -69q78 0 125 33t47 102q0 41 -18.5 71t-50 49t-72.5 33.5t-86 26.5t-90.5 26t-86.5 35.5t-72.5 50.5t-50 75t-18.5 106q0 75 30 133t81 92.5t113 52t131 17.5q153 0 248 -92l24 82h84q-27 -141 -27 -194v-121 h-92v45q0 76 -61.5 137t-171.5 61q-76 0 -121 -31t-45 -96q0 -45 23.5 -77.5t62 -50.5t88 -35t101 -29t101 -34t88 -50t62 -76.5t23.5 -113.5q0 -138 -99.5 -223t-267.5 -85q-180 0 -278 103l-21 -92h-88z" />
<glyph unicode="t" horiz-adv-x="714" d="M174 252v594h-147v80h149q90 140 115 297h112v-297h252v-80h-252v-596q0 -80 21 -119t72 -39q84 0 133 127l80 -33q-15 -35 -28.5 -59.5t-37.5 -54.5t-51.5 -48.5t-69 -31t-92.5 -12.5q-123 0 -189.5 70t-66.5 202z" />
<glyph unicode="u" horiz-adv-x="1208" d="M180 262v584h-174v80h404v-676q0 -93 26 -133.5t88 -40.5q55 0 102 33t77 85.5t51.5 117.5t31 127.5t9.5 117.5v289h-154v80h383v-846h156v-80h-369v229h-4q-8 -22 -12 -32.5t-20 -42t-31 -51t-43 -47.5t-59 -44.5t-76.5 -28.5t-96.5 -12q-140 0 -214.5 71.5t-74.5 219.5 z" />
<glyph unicode="v" horiz-adv-x="1060" d="M489 -20l-360 866h-123v80h518v-80h-151l231 -565l230 565h-146v80h369v-80h-125l-354 -866h-89z" />
<glyph unicode="w" horiz-adv-x="1609" d="M473 -20l-346 866h-123v80h518v-80h-151l215 -555l239 635h88l256 -639l213 559h-145v80h367v-80h-125l-334 -866h-88l-254 632l-242 -632h-88z" />
<glyph unicode="x" horiz-adv-x="1073" d="M31 0v80h127l280 360l-268 406h-131v80h514v-80h-123l166 -252l195 252h-89v80h318v-80h-115l-258 -330l291 -436h115v-80h-498v80h123l-186 280l-218 -280h95v-80h-338z" />
<glyph unicode="y" horiz-adv-x="1095" d="M35 -319q0 62 48 103t159 38q-8 -39 -10.5 -74.5t2.5 -75.5t30.5 -64t69.5 -24q69 0 114.5 62.5t61.5 165.5l20 149l-399 885h-121v80h518v-80h-153l256 -582l231 582h-145v80h368v-80h-124l-326 -805l-31 -223q-7 -49 -16.5 -86.5t-31 -83t-52.5 -75t-83 -49.5t-120 -20 q-117 0 -191.5 48t-74.5 129z" />
<glyph unicode="z" horiz-adv-x="978" d="M68 0v61l557 781h-291q-26 0 -39 -4t-28.5 -16t-28.5 -44t-29 -79.5t-39 -129.5h-68q13 174 13 256v101h778v-64l-567 -780h327q41 0 63.5 19.5t45.5 77.5t63 196h68q-19 -201 -19 -275v-100h-806z" />
<glyph unicode="{" horiz-adv-x="692" d="M240 -147q0 71 22.5 196t22.5 195q0 96 -47.5 160.5t-147.5 64.5h-65v84h63q102 0 149.5 66.5t47.5 166.5q0 65 -22.5 179.5t-22.5 179.5q0 57 6 100.5t24 87.5t48 72.5t82 46.5t122 18h109v-79h-74q-147 0 -147 -129q0 -53 40.5 -160.5t41.5 -173.5q2 -148 -59.5 -258.5 t-190.5 -159.5q128 -44 190 -148.5t60 -244.5q-1 -71 -39.5 -184.5t-38.5 -161.5q0 -84 32.5 -121t110.5 -37h74v-80h-109q-69 0 -120.5 17.5t-82 45.5t-48.5 71t-24.5 86.5t-6.5 99.5z" />
<glyph unicode="|" horiz-adv-x="491" d="M170 -467v1937h152v-1937h-152z" />
<glyph unicode="}" horiz-adv-x="692" d="M203 117q-2 139 59.5 244t188.5 149q-128 49 -189 159.5t-59 258.5q1 66 41.5 173.5t40.5 160.5q0 129 -148 129h-76v79h109q70 0 122 -18t82.5 -46.5t48.5 -72.5t24 -87.5t6 -100.5q0 -65 -22.5 -179.5t-22.5 -179.5q0 -100 47 -166.5t149 -66.5h64v-84h-66 q-100 0 -147 -64.5t-47 -160.5q0 -70 22.5 -195t22.5 -196q0 -55 -6.5 -99t-25 -87t-49 -71t-82 -45.5t-120.5 -17.5h-109v80h76q77 0 110.5 37t33.5 121q0 48 -38.5 161.5t-39.5 184.5z" />
<glyph unicode="~" horiz-adv-x="1255" d="M209 352l-88 117q56 62 139.5 101.5t171.5 39.5q59 0 117.5 -20t97 -44.5t88 -44.5t92.5 -20q58 0 118 30t104 79l86 -117q-54 -60 -140 -100.5t-176 -40.5q-58 0 -115 20t-95.5 44.5t-88 44.5t-94.5 20q-118 0 -217 -109z" />
<glyph unicode="&#xa1;" horiz-adv-x="538" d="M307 461q101 -684 101 -778q0 -66 -40 -104t-98 -38q-59 0 -97 37.5t-38 104.5q0 42 24 236.5t48 368.5l24 173h76zM422 793q0 -62 -45.5 -107t-106.5 -45q-62 0 -107.5 44.5t-45.5 105.5q0 63 45.5 108t107.5 45q60 0 106 -45t46 -106z" />
<glyph unicode="&#xa2;" d="M137 485q0 255 109.5 384t304.5 143v155h86v-155q146 -6 241 -60.5t95 -148.5q0 -72 -53.5 -116.5t-151.5 -41.5q8 78 8 103q0 91 -32 137t-107 55v-889q94 8 157 66t85 157l86 -14q-22 -116 -103.5 -195t-224.5 -92v-145h-86v145q-93 5 -167 36t-130.5 91t-86.5 157.5 t-30 227.5zM371 489q0 -212 43 -312.5t137 -121.5v883q-95 -19 -137.5 -123t-42.5 -326z" />
<glyph unicode="&#xa3;" d="M35 57q0 103 198 90q27 56 39 168l19 189h-193v86h203l27 252q5 43 18 83.5t42 84t70 76t106 53t145 20.5q142 0 226.5 -59.5t84.5 -145.5q0 -74 -56 -116t-145 -37q8 52 8 100q0 98 -29 144.5t-91 46.5q-67 0 -101 -56.5t-51 -199.5l-29 -246h260v-86h-270l-22 -189 q-11 -111 -78 -204q29 -6 90.5 -22.5t107.5 -26t80 -9.5q85 0 120.5 50.5t35.5 148.5q0 20 -4 82q76 3 128 -35t52 -111q0 -95 -79 -156t-202 -61q-83 0 -225.5 34t-173.5 38q-89 -63 -219 -63q-45 0 -68.5 20.5t-23.5 56.5z" />
<glyph unicode="&#xa5;" d="M184 545v88h219l-264 418h-116v79h466v-79h-96l238 -396l233 396h-114v79h315v-79h-98l-244 -418h252v-88h-285v-170h285v-88h-285v-207h148v-80h-529v80h150v207h-275v88h275v170h-275z" />
<glyph unicode="&#xa6;" horiz-adv-x="501" d="M172 535v874h158v-874h-158zM172 322h158v-875h-158v875z" />
<glyph unicode="&#xa7;" horiz-adv-x="997" d="M156 973q0 93 23 166t71 128.5t129.5 85t191.5 29.5q152 0 245 -60t93 -159q0 -63 -41.5 -103.5t-138.5 -37.5q9 55 7 106.5t-14.5 91t-50.5 63.5t-100 24q-102 0 -150 -78.5t-48 -235.5q0 -125 36.5 -291.5t80 -299.5t80 -269t36.5 -207q0 -86 -44.5 -123.5 t-145.5 -19.5q0 77 -40.5 235t-89.5 312.5t-89.5 337.5t-40.5 305zM96 -283q0 28 8.5 53t28 48t58.5 35.5t92 11.5q-66 -277 172 -277q147 0 218.5 80t71.5 205q0 90 -37 246.5t-81.5 300t-81.5 305t-37 260.5q0 49 8 96h94q-6 -50 -6 -82q0 -95 37 -253t82 -300.5t82 -305 t37 -267.5q0 -176 -100.5 -272.5t-292.5 -96.5q-162 0 -257.5 61t-95.5 152z" />
<glyph unicode="&#xa8;" horiz-adv-x="1024" d="M756 1122q-52 0 -89.5 38t-37.5 89q0 53 37.5 90t89.5 37q51 0 89 -37.5t38 -89.5q0 -51 -38 -89t-89 -38zM336 1122q-51 0 -89 38t-38 89q0 52 38 89.5t89 37.5q52 0 89.5 -37t37.5 -90q0 -51 -37.5 -89t-89.5 -38z" />
<glyph unicode="&#xa9;" horiz-adv-x="1865" d="M90 582q0 229 114 421t308.5 302t423.5 110q172 0 327.5 -65.5t268 -176.5t178.5 -264.5t66 -322.5q0 -171 -67.5 -325t-181.5 -265t-271.5 -176.5t-331.5 -65.5q-116 0 -225 29.5t-200.5 83t-168 130t-129 167.5t-82 198t-29.5 220zM207 580q0 -146 57.5 -280 t155 -231.5t231.5 -155.5t281 -58q146 0 280 58t231.5 155.5t155.5 231.5t58 280t-57.5 281t-154.5 234t-231.5 158.5t-281.5 59.5q-118 0 -228.5 -37.5t-199.5 -106.5t-156.5 -159.5t-104 -201.5t-36.5 -228zM500 573q0 250 121.5 380t320.5 130q156 0 265.5 -74.5 t109.5 -179.5q0 -71 -54 -114.5t-151 -40.5q8 74 8 100q0 236 -176 236q-106 0 -155.5 -98.5t-49.5 -325.5q0 -234 52 -327t172 -93q102 0 173.5 59.5t92.5 167.5l90 -16q-25 -131 -120 -213t-265 -82q-94 0 -171 28t-137 85t-93 153.5t-33 224.5z" />
<glyph unicode="&#xaa;" horiz-adv-x="872" d="M96 870q0 76 62 127.5t148 72t186 20.5v124q0 60 -22.5 83.5t-74.5 23.5q-60 0 -86 -27.5t-26 -85.5q0 -40 4 -67q-76 -4 -120 26.5t-44 77.5q0 63 74.5 100t203.5 37q136 0 195 -48t59 -160v-336q0 -50 29 -50q19 0 34 19.5t20 38.5l5 20l64 -20q-1 -6 -4 -15.5 t-16 -34.5t-29.5 -44t-46.5 -34.5t-66 -15.5q-119 0 -131 101h-8q-85 -107 -197 -107q-92 0 -152.5 45t-60.5 129zM350 784q51 0 96.5 46t45.5 90v102q-111 0 -165.5 -34t-54.5 -111q0 -93 78 -93z" />
<glyph unicode="&#xab;" horiz-adv-x="933" d="M459 465q0 112 96.5 236t232.5 225l60 -68q-75 -72 -105 -118.5t-39.5 -101.5t-9.5 -173q0 -167 24 -230t130 -163l-60 -68q-137 101 -233 224.5t-96 236.5zM412 4q-136 102 -232 225t-96 236q0 58 28.5 123t77.5 125.5t104.5 113t117.5 99.5l61 -68 q-76 -72 -106.5 -118.5t-40 -101.5t-9.5 -173t9.5 -173.5t40 -102t106.5 -117.5z" />
<glyph unicode="&#xac;" horiz-adv-x="1212" d="M88 793v147h981v-596h-158v449h-823z" />
<glyph unicode="&#xad;" horiz-adv-x="765" d="M125 399v179h516v-179h-516z" />
<glyph unicode="&#xae;" horiz-adv-x="1005" d="M502 645q-168 0 -290 122t-122 290q0 110 56 205.5t151 151.5t205 56q168 0 290.5 -122.5t122.5 -290.5q0 -167 -122.5 -289.5t-290.5 -122.5zM500 715q135 0 233 101.5t98 240.5q0 138 -98 240t-233 102q-134 0 -231 -101.5t-97 -240.5q0 -140 96.5 -241t231.5 -101z M289 834v53h61v338h-61v55h200q103 0 148 -27t45 -88q0 -51 -30 -80t-85 -34v-7q40 -9 62 -28t27.5 -40t7 -41t8 -33t24.5 -13h11l-2 -45q-15 -13 -46 -13q-45 0 -69.5 20t-31 48.5t-10.5 57.5t-19 49t-46 20h-26v-139h65v-53h-233zM457 1079h55q31 0 48.5 21.5t17.5 56.5 q0 32 -17.5 49t-48.5 17h-55v-144z" />
<glyph unicode="&#xaf;" horiz-adv-x="1024" d="M270 1165v158h543v-158h-543z" />
<glyph unicode="&#xb0;" horiz-adv-x="798" d="M395 866q-133 0 -223 91t-90 221q0 129 92 220t225 91t225.5 -91t92.5 -220t-94.5 -220.5t-227.5 -91.5zM399 1001q73 0 124.5 51.5t51.5 125.5t-51.5 125t-124.5 51t-124.5 -51t-51.5 -125t51.5 -125.5t124.5 -51.5z" />
<glyph unicode="&#xb1;" d="M94 629v147h383v367h156v-367h379v-147h-379v-381h-156v381h-383zM94 0v147h918v-147h-918z" />
<glyph unicode="&#xb2;" horiz-adv-x="866" d="M94 772v62q21 16 68 50.5t74 54.5t70 56t69 63.5t57.5 67.5t48.5 77.5t29 84.5t12 96q0 164 -119 164q-55 0 -81.5 -35t-26.5 -112q0 -49 4 -80q-82 0 -126 33.5t-44 91.5q0 84 83.5 130t211.5 46q138 0 224.5 -52.5t86.5 -162.5q0 -56 -28.5 -116.5t-69 -110 t-103.5 -106t-112 -93.5t-115 -84h266q29 0 45.5 9t38 51t45.5 126h62q-23 -192 -23 -249v-62h-647z" />
<glyph unicode="&#xb3;" horiz-adv-x="806" d="M358 756q-114 0 -188 38.5t-74 116.5q0 117 154 117q-4 -33 -5.5 -56.5t3 -52t15.5 -46.5t34.5 -30t58.5 -12q74 0 109 38.5t35 119.5q0 92 -44.5 133t-156.5 41h-27v82h27q92 0 130 41t38 141q0 66 -25.5 92.5t-81.5 26.5t-79 -28t-23 -93q0 -15 4 -73q-77 0 -118.5 29 t-41.5 79q0 73 75 117.5t200 44.5q89 0 157 -19.5t112 -65.5t44 -116q0 -158 -235 -213v-4q131 -15 198.5 -60t67.5 -143q0 -108 -100.5 -176.5t-262.5 -68.5z" />
<glyph unicode="&#xb4;" horiz-adv-x="1024" d="M492 1075l-52 33l178 383q24 49 76 49q49 0 82 -29.5t33 -62.5q0 -38 -29 -70z" />
<glyph unicode="&#xb5;" horiz-adv-x="1323" d="M240 262v584h-174v80h403v-676q0 -93 26.5 -133.5t88.5 -40.5q55 0 101.5 33.5t77 85t52 117t30.5 127.5t9 118v289h-154v80h383v-846h156v-80h-369v229h-4q-8 -22 -12 -32.5t-20 -42t-31 -51t-43 -47.5t-59 -44.5t-76.5 -28.5t-96.5 -12q-68 0 -127 19q4 -76 33 -207.5 t29 -159.5q0 -68 -29.5 -93.5t-91.5 -25.5h-100v713q-2 14 -2 45z" />
<glyph unicode="&#xb6;" horiz-adv-x="1304" d="M608 -467v836h-67q-207 0 -347.5 135t-140.5 350q0 220 147.5 360t368.5 140h670v-80h-534v-1741h-97zM1051 -467h-203v1620h203v-1620z" />
<glyph unicode="&#xb7;" horiz-adv-x="524" d="M262 311q-63 0 -107 45t-44 107t44 106.5t107 44.5t107.5 -44.5t44.5 -106.5t-44.5 -107t-107.5 -45z" />
<glyph unicode="&#xb8;" horiz-adv-x="1024" d="M424 -190l55 200h92l-32 -129q198 -26 198 -180q0 -89 -64 -143t-163 -54q-68 0 -119 27.5t-76 69.5l64 55q46 -68 117 -68q44 0 66 26.5t22 72.5q0 61 -37.5 89.5t-122.5 33.5z" />
<glyph unicode="&#xb9;" horiz-adv-x="714" d="M102 772v76h172v682h-170v76h369v-758h168v-76h-539z" />
<glyph unicode="&#xba;" horiz-adv-x="839" d="M420 696q-161 0 -244.5 89t-83.5 249q0 168 82 258t246 90q328 0 328 -338q0 -169 -86.5 -258.5t-241.5 -89.5zM420 764q84 0 117.5 68t33.5 212q0 139 -33.5 205t-117.5 66q-82 0 -117 -69.5t-35 -211.5q0 -137 34.5 -203.5t117.5 -66.5z" />
<glyph unicode="&#xbb;" horiz-adv-x="931" d="M461 72q75 70 105 117.5t39 102t9 173.5q0 91 -3 135.5t-20.5 91t-45 79t-84.5 87.5l59 68q136 -100 232 -224.5t96 -236.5q0 -113 -96 -236.5t-232 -224.5zM84 72q76 71 106.5 117.5t40 102t9.5 173.5t-9.5 173t-40 101.5t-106.5 118.5l61 68q62 -47 117.5 -99.5 t104.5 -113t77.5 -125.5t28.5 -123q0 -113 -96 -236t-232 -225z" />
<glyph unicode="&#xbc;" horiz-adv-x="1726" d="M389 0l846 1354h133l-846 -1354h-133zM913 233v74l461 565h129v-555h160v-84h-160v-233h-198v233h-392zM1030 317h275v332zM94 520v76h172v682h-170v76h369v-758h168v-76h-539z" />
<glyph unicode="&#xbd;" horiz-adv-x="1818" d="M1075 0v61q20 15 68 50t74 55t69.5 56t69 63.5t57.5 68t49 78t29 84.5t12 96q0 164 -119 164q-55 0 -81.5 -35t-26.5 -112q0 -49 4 -80q-82 0 -126 33.5t-44 91.5q0 84 83.5 130t211.5 46q138 0 224.5 -52.5t86.5 -162.5q0 -56 -28.5 -116.5t-69 -110t-103.5 -106 t-112 -93.5t-115 -84h266q29 0 45.5 9t38 51t45.5 126h62q-23 -193 -23 -250v-61h-647zM90 520v76h172v682h-170v76h369v-758h168v-76h-539zM381 0l846 1354h133l-846 -1354h-133z" />
<glyph unicode="&#xbe;" horiz-adv-x="1748" d="M414 0l846 1354h133l-846 -1354h-133zM936 233v74l461 565h127v-555h162v-84h-162v-233h-197v233h-391zM1051 317h276v332zM352 516q-113 0 -187.5 39t-74.5 117q0 116 154 116q-4 -33 -5.5 -56.5t3 -51.5t15.5 -46t34.5 -30t58.5 -12q74 0 109 38.5t35 119.5 q0 92 -44.5 133t-156.5 41h-27v82h27q92 0 130 41t38 141q0 66 -25.5 92.5t-81.5 26.5t-79 -28t-23 -93q0 -16 4 -74q-77 0 -118.5 29.5t-41.5 79.5q0 72 75 116.5t200 44.5q89 0 157 -19t112 -65t44 -116q0 -158 -235 -213v-4q131 -15 198.5 -60t67.5 -143 q0 -108 -100.5 -177t-262.5 -69z" />
<glyph unicode="&#xbf;" horiz-adv-x="970" d="M449 500q82 0 136 -46.5t54 -127.5q0 -45 -17.5 -81t-46 -61.5t-62.5 -49.5t-68 -52t-62.5 -61t-46 -84t-17.5 -115q0 -199 183 -199q104 0 153.5 65.5t49.5 182.5q0 54 -13 111q96 8 158.5 -42.5t62.5 -142.5q0 -121 -115 -188.5t-302 -67.5q-204 0 -321.5 77.5 t-117.5 211.5q0 64 26 116.5t67 87.5t91 64.5t100.5 53.5t91.5 47t67 53t26 65q0 39 -25 64t-63 25q-30 0 -55 -11l-21 88q41 17 87 17zM647 793q0 -63 -45.5 -107.5t-107.5 -44.5t-107 44.5t-45 107.5q0 61 45 106t107 45t107.5 -45t45.5 -106z" />
<glyph unicode="&#xc0;" horiz-adv-x="1331" d="M-35 0v80h174l465 1294h94l516 -1294h150v-80h-569v80h155l-143 358h-436l-129 -358h159v-80h-436zM578 1016l-177 -490h371zM748 1479l-328 172q-62 32 -62 86q0 39 28 67.5t71 28.5q38 0 71 -33l256 -272z" />
<glyph unicode="&#xc1;" horiz-adv-x="1331" d="M-35 0v80h174l465 1294h94l516 -1294h150v-80h-569v80h155l-143 358h-436l-129 -358h159v-80h-436zM578 1016l-177 -490h371zM545 1479l-37 49l254 268q30 35 76 35q42 0 69 -28t27 -68q0 -56 -55 -84z" />
<glyph unicode="&#xc2;" horiz-adv-x="1331" d="M-35 0v80h174l465 1294h94l516 -1294h150v-80h-569v80h155l-143 358h-436l-129 -358h159v-80h-436zM578 1016l-177 -490h371zM391 1446l-51 47l258 305h107l256 -305l-54 -47l-254 180h-8z" />
<glyph unicode="&#xc3;" horiz-adv-x="1331" d="M-35 0v80h174l465 1294h94l516 -1294h150v-80h-569v80h155l-143 358h-436l-129 -358h159v-80h-436zM293 1522q1 11 4 28.5t17.5 63t35 80.5t62 63.5t94.5 28.5q43 0 98 -27t107.5 -54.5t87.5 -27.5q30 0 54.5 11t38.5 27.5t23.5 32.5t12.5 27l4 11h72q0 -6 -1 -15.5 t-6.5 -36.5t-14 -52t-25.5 -55.5t-40 -52.5t-59 -37t-80 -15q-51 0 -103.5 26.5t-98 53t-80.5 26.5q-45 0 -78.5 -26.5t-44.5 -53.5l-11 -26h-69zM578 1016l-177 -490h371z" />
<glyph unicode="&#xc4;" horiz-adv-x="1331" d="M-35 0v80h174l465 1294h94l516 -1294h150v-80h-569v80h155l-143 358h-436l-129 -358h159v-80h-436zM578 1016l-177 -490h371zM418 1530q-51 0 -89 37.5t-38 89.5t38 89.5t89 37.5q52 0 89.5 -37t37.5 -90t-37.5 -90t-89.5 -37zM879 1530q-53 0 -90 37t-37 90t37 90t90 37 q51 0 89 -37.5t38 -89.5t-38 -89.5t-89 -37.5z" />
<glyph unicode="&#xc5;" horiz-adv-x="1331" d="M-35 0v80h174l465 1294h94l516 -1294h150v-80h-569v80h155l-143 358h-436l-129 -358h159v-80h-436zM649 1456q-102 0 -154.5 60t-52.5 137t52 133.5t155 56.5q101 0 153 -56.5t52 -133.5t-52.5 -137t-152.5 -60zM578 1016l-177 -490h371zM649 1544q44 0 71.5 33.5 t27.5 73.5t-26 72t-73 32q-48 0 -72 -31.5t-24 -72.5t25 -74t71 -33z" />
<glyph unicode="&#xc6;" horiz-adv-x="1886" d="M-39 0v80h168l627 1194h-172v80h1200l-86 -418h-68l-12 248q-3 55 -14.5 69.5t-47.5 14.5h-432v-553h289v176h98v-455h-98v191h-289v-541h383q30 0 45.5 3.5t36.5 21t37.5 55t37.5 103.5t46 169h72q-17 -221 -17 -332v-106h-1083v80h192v383h-436l-200 -383h165v-80h-442 zM874 1274h-10l-379 -723h389v723z" />
<glyph unicode="&#xc7;" horiz-adv-x="1312" d="M604 -190l45 165q-180 18 -305.5 113.5t-185.5 245.5t-60 344q0 328 170 516t480 188q234 0 350 -116l55 98h84q-39 -195 -39 -283v-145h-100v88q0 121 -92 196.5t-242 75.5q-97 0 -169.5 -36.5t-115 -94t-68.5 -142.5t-35 -168.5t-9 -184.5q0 -86 7 -158.5t23 -144 t45.5 -126t72.5 -97t106 -65t143 -22.5q155 0 252.5 85t130.5 239l98 -16q-15 -66 -38.5 -121t-64 -107t-94 -87t-132 -56.5t-175.5 -22.5l-22 -90q199 -27 199 -180q0 -89 -64.5 -143t-163.5 -54q-68 0 -118.5 27.5t-75.5 69.5l63 55q46 -68 117 -68q44 0 66 26.5t22 72.5 q0 61 -37.5 89.5t-122.5 33.5z" />
<glyph unicode="&#xc8;" horiz-adv-x="1284" d="M758 1479l-328 172q-61 31 -61 86q0 39 27.5 67.5t70.5 28.5q39 0 72 -33l256 -272zM72 0v80h194v1194h-194v80h1112l-82 -418h-72l-12 248q-3 55 -14.5 69.5t-47.5 14.5h-440v-553h289v176h96v-461h-96v197h-289v-541h391q28 0 45 5t37 23.5t36.5 56.5t36.5 102.5 t44 164.5h74q-2 -25 -4.5 -64.5t-7 -129t-3.5 -138.5v-106h-1093z" />
<glyph unicode="&#xc9;" horiz-adv-x="1284" d="M72 0v80h194v1194h-194v80h1112l-82 -418h-72l-12 248q-3 55 -14.5 69.5t-47.5 14.5h-440v-553h289v176h96v-461h-96v197h-289v-541h391q28 0 45 5t37 23.5t36.5 56.5t36.5 102.5t44 164.5h74q-2 -25 -4.5 -64.5t-7 -129t-3.5 -138.5v-106h-1093zM555 1479l-37 49 l254 268q30 35 76 35q42 0 69 -28t27 -68q0 -56 -55 -84z" />
<glyph unicode="&#xca;" horiz-adv-x="1284" d="M401 1446l-51 47l258 305h107l256 -305l-53 -47l-254 180h-9zM72 0v80h194v1194h-194v80h1112l-82 -418h-72l-12 248q-3 55 -14.5 69.5t-47.5 14.5h-440v-553h289v176h96v-461h-96v197h-289v-541h391q28 0 45 5t37 23.5t36.5 56.5t36.5 102.5t44 164.5h74 q-2 -25 -4.5 -64.5t-7 -129t-3.5 -138.5v-106h-1093z" />
<glyph unicode="&#xcb;" horiz-adv-x="1284" d="M72 0v80h194v1194h-194v80h1112l-82 -418h-72l-12 248q-3 55 -14.5 69.5t-47.5 14.5h-440v-553h289v176h96v-461h-96v197h-289v-541h391q28 0 45 5t37 23.5t36.5 56.5t36.5 102.5t44 164.5h74q-2 -25 -4.5 -64.5t-7 -129t-3.5 -138.5v-106h-1093zM889 1530q-53 0 -90 37 t-37 90t37 90t90 37q51 0 89 -37.5t38 -89.5t-38 -89.5t-89 -37.5zM428 1530q-51 0 -89 37.5t-38 89.5t38 89.5t89 37.5q52 0 89.5 -37t37.5 -90t-37.5 -90t-89.5 -37z" />
<glyph unicode="&#xcc;" horiz-adv-x="782" d="M72 0v80h194v1194h-194v80h637v-80h-193v-1194h193v-80h-637zM487 1479l-327 172q-62 32 -62 86q0 39 28 67.5t71 28.5q38 0 71 -33l256 -272z" />
<glyph unicode="&#xcd;" horiz-adv-x="782" d="M72 0v80h194v1194h-194v80h637v-80h-193v-1194h193v-80h-637zM285 1479l-37 49l254 268q30 35 76 35q42 0 69 -28t27 -68q0 -55 -56 -84z" />
<glyph unicode="&#xce;" horiz-adv-x="782" d="M72 0v80h194v1194h-194v80h637v-80h-193v-1194h193v-80h-637zM131 1446l-51 47l258 305h106l256 -305l-53 -47l-254 180h-8z" />
<glyph unicode="&#xcf;" horiz-adv-x="782" d="M72 0v80h194v1194h-194v80h637v-80h-193v-1194h193v-80h-637zM618 1530q-52 0 -89 37t-37 90t37 90t89 37q51 0 89 -37.5t38 -89.5t-38 -89.5t-89 -37.5zM158 1530q-51 0 -89 37.5t-38 89.5t38 89.5t89 37.5q52 0 89.5 -37t37.5 -90t-37.5 -90t-89.5 -37z" />
<glyph unicode="&#xd0;" horiz-adv-x="1515" d="M74 649v90h194v535h-194v80h643q189 0 325.5 -46t217 -134t118 -205.5t37.5 -270.5q0 -120 -21.5 -221.5t-72.5 -191t-130 -151.5t-199.5 -98t-274.5 -36h-643v80h194v569h-194zM823 649h-307v-563h205q224 0 325 144t101 446q0 316 -99.5 454t-326.5 138h-205v-529h307 v-90z" />
<glyph unicode="&#xd1;" horiz-adv-x="1556" d="M92 0v80h193v1114q-38 45 -74.5 62.5t-116.5 17.5h-53v80h436l733 -957v877h-192v80h483v-80h-192v-1284h-95l-831 1077v-987h192v-80h-483zM430 1522q1 11 4 28.5t17.5 63t35 80.5t62 63.5t94.5 28.5q43 0 98 -27t107.5 -54.5t87.5 -27.5q30 0 54.5 11t38.5 27.5 t23.5 32.5t13.5 27l3 11h72q0 -6 -1 -15.5t-6.5 -36.5t-14 -52t-25.5 -55.5t-40 -52.5t-59 -37t-80 -15q-51 0 -103.5 26.5t-98 53t-80.5 26.5q-29 0 -53 -11t-38 -26.5t-24 -31t-14 -26.5l-4 -11h-70z" />
<glyph unicode="&#xd2;" horiz-adv-x="1480" d="M836 1479l-328 172q-62 32 -62 86q0 39 28 67.5t71 28.5q38 0 71 -33l256 -272zM100 698q0 150 35.5 271.5t109.5 215.5t199.5 145.5t294.5 51.5q326 0 483.5 -176t157.5 -508q0 -163 -36 -292.5t-110.5 -228.5t-200 -152.5t-294.5 -53.5q-141 0 -250 34t-182 95 t-119.5 152.5t-67 200.5t-20.5 245zM741 51q91 0 158.5 35t107.5 91t64 140t32.5 168.5t8.5 190.5q0 96 -5.5 170.5t-19.5 149.5t-41 128t-67 95t-100 63t-138 21q-68 0 -122.5 -17.5t-93 -47t-67 -76t-45.5 -97t-27 -117.5t-13.5 -130t-3.5 -142q0 -82 3.5 -146.5 t13.5 -131.5t27 -117t45.5 -95t67 -73.5t93 -45t122.5 -16.5z" />
<glyph unicode="&#xd3;" horiz-adv-x="1480" d="M633 1479l-37 49l254 268q30 35 76 35q42 0 69 -28t27 -68q0 -56 -55 -84zM100 698q0 150 35.5 271.5t109.5 215.5t199.5 145.5t294.5 51.5q326 0 483.5 -176t157.5 -508q0 -163 -36 -292.5t-110.5 -228.5t-200 -152.5t-294.5 -53.5q-141 0 -250 34t-182 95t-119.5 152.5 t-67 200.5t-20.5 245zM741 51q91 0 158.5 35t107.5 91t64 140t32.5 168.5t8.5 190.5q0 96 -5.5 170.5t-19.5 149.5t-41 128t-67 95t-100 63t-138 21q-68 0 -122.5 -17.5t-93 -47t-67 -76t-45.5 -97t-27 -117.5t-13.5 -130t-3.5 -142q0 -82 3.5 -146.5t13.5 -131.5t27 -117 t45.5 -95t67 -73.5t93 -45t122.5 -16.5z" />
<glyph unicode="&#xd4;" horiz-adv-x="1480" d="M479 1446l-51 47l258 305h107l256 -305l-54 -47l-254 180h-8zM100 698q0 150 35.5 271.5t109.5 215.5t199.5 145.5t294.5 51.5q326 0 483.5 -176t157.5 -508q0 -163 -36 -292.5t-110.5 -228.5t-200 -152.5t-294.5 -53.5q-141 0 -250 34t-182 95t-119.5 152.5t-67 200.5 t-20.5 245zM741 51q91 0 158.5 35t107.5 91t64 140t32.5 168.5t8.5 190.5q0 96 -5.5 170.5t-19.5 149.5t-41 128t-67 95t-100 63t-138 21q-68 0 -122.5 -17.5t-93 -47t-67 -76t-45.5 -97t-27 -117.5t-13.5 -130t-3.5 -142q0 -82 3.5 -146.5t13.5 -131.5t27 -117t45.5 -95 t67 -73.5t93 -45t122.5 -16.5z" />
<glyph unicode="&#xd5;" horiz-adv-x="1480" d="M100 698q0 150 35.5 271.5t109.5 215.5t199.5 145.5t294.5 51.5q326 0 483.5 -176t157.5 -508q0 -163 -36 -292.5t-110.5 -228.5t-200 -152.5t-294.5 -53.5q-141 0 -250 34t-182 95t-119.5 152.5t-67 200.5t-20.5 245zM741 51q91 0 158.5 35t107.5 91t64 140t32.5 168.5 t8.5 190.5q0 96 -5.5 170.5t-19.5 149.5t-41 128t-67 95t-100 63t-138 21q-68 0 -122.5 -17.5t-93 -47t-67 -76t-45.5 -97t-27 -117.5t-13.5 -130t-3.5 -142q0 -82 3.5 -146.5t13.5 -131.5t27 -117t45.5 -95t67 -73.5t93 -45t122.5 -16.5zM381 1522q1 11 4 28.5t17.5 63 t35 80.5t62 63.5t94.5 28.5q43 0 98 -27t107.5 -54.5t87.5 -27.5q30 0 54.5 11t38.5 27.5t23.5 32.5t12.5 27l4 11h72q0 -6 -1 -15.5t-6.5 -36.5t-14 -52t-25.5 -55.5t-40 -52.5t-59 -37t-80 -15q-51 0 -103.5 26.5t-98 53t-80.5 26.5q-29 0 -53 -11t-38 -26.5t-24 -31 t-14 -26.5l-4 -11h-70z" />
<glyph unicode="&#xd6;" horiz-adv-x="1480" d="M100 698q0 150 35.5 271.5t109.5 215.5t199.5 145.5t294.5 51.5q326 0 483.5 -176t157.5 -508q0 -163 -36 -292.5t-110.5 -228.5t-200 -152.5t-294.5 -53.5q-141 0 -250 34t-182 95t-119.5 152.5t-67 200.5t-20.5 245zM741 51q91 0 158.5 35t107.5 91t64 140t32.5 168.5 t8.5 190.5q0 96 -5.5 170.5t-19.5 149.5t-41 128t-67 95t-100 63t-138 21q-68 0 -122.5 -17.5t-93 -47t-67 -76t-45.5 -97t-27 -117.5t-13.5 -130t-3.5 -142q0 -82 3.5 -146.5t13.5 -131.5t27 -117t45.5 -95t67 -73.5t93 -45t122.5 -16.5zM967 1530q-53 0 -90 37t-37 90 t37 90t90 37q51 0 89 -37.5t38 -89.5t-38 -89.5t-89 -37.5zM506 1530q-51 0 -89 37.5t-38 89.5t38 89.5t89 37.5q52 0 89.5 -37t37.5 -90t-37.5 -90t-89.5 -37z" />
<glyph unicode="&#xd7;" d="M23 909l110 107l418 -418l418 418l110 -109l-420 -420l422 -419l-112 -107l-418 418l-420 -418l-108 107l419 419z" />
<glyph unicode="&#xd8;" horiz-adv-x="1480" d="M100 698q0 150 35.5 271.5t109.5 215.5t199.5 145.5t294.5 51.5q202 0 340 -69l117 178l84 -51l-117 -180q217 -170 217 -562q0 -163 -36 -292.5t-110.5 -228.5t-200 -152.5t-294.5 -53.5q-210 0 -356 78l-109 -168l-84 51l111 172q-201 173 -201 594zM741 51 q91 0 158.5 35t107.5 91t64 140t32.5 168.5t8.5 190.5q0 278 -55 420l-592 -920q86 -125 276 -125zM369 676q0 -268 45 -397l590 913q-89 113 -263 113q-79 0 -140 -22.5t-101 -66.5t-66.5 -98t-40 -129.5t-19 -147.5t-5.5 -165z" />
<glyph unicode="&#xd9;" horiz-adv-x="1562" d="M936 1479l-328 172q-61 31 -61 86q0 39 27.5 67.5t70.5 28.5q39 0 72 -33l256 -272zM231 557v717h-194v80h639v-80h-193v-739q0 -123 16 -207t55 -147.5t108.5 -93.5t173.5 -30q389 0 389 453v764h-197v80h498v-80h-197v-768q0 -535 -508 -535q-163 0 -278 38 t-183.5 114.5t-99 182.5t-29.5 251z" />
<glyph unicode="&#xda;" horiz-adv-x="1562" d="M231 557v717h-194v80h639v-80h-193v-739q0 -123 16 -207t55 -147.5t108.5 -93.5t173.5 -30q389 0 389 453v764h-197v80h498v-80h-197v-768q0 -535 -508 -535q-163 0 -278 38t-183.5 114.5t-99 182.5t-29.5 251zM733 1479l-37 49l254 268q30 35 76 35q42 0 69 -28t27 -68 q0 -56 -55 -84z" />
<glyph unicode="&#xdb;" horiz-adv-x="1562" d="M580 1446l-52 47l258 305h107l256 -305l-53 -47l-254 180h-8zM231 557v717h-194v80h639v-80h-193v-739q0 -123 16 -207t55 -147.5t108.5 -93.5t173.5 -30q389 0 389 453v764h-197v80h498v-80h-197v-768q0 -535 -508 -535q-163 0 -278 38t-183.5 114.5t-99 182.5 t-29.5 251z" />
<glyph unicode="&#xdc;" horiz-adv-x="1562" d="M231 557v717h-194v80h639v-80h-193v-739q0 -123 16 -207t55 -147.5t108.5 -93.5t173.5 -30q389 0 389 453v764h-197v80h498v-80h-197v-768q0 -535 -508 -535q-163 0 -278 38t-183.5 114.5t-99 182.5t-29.5 251zM1067 1530q-53 0 -90 37t-37 90t37 90t90 37q51 0 89 -37.5 t38 -89.5t-38 -89.5t-89 -37.5zM606 1530q-51 0 -89 37.5t-38 89.5t38 89.5t89 37.5q52 0 89.5 -37t37.5 -90t-37.5 -90t-89.5 -37z" />
<glyph unicode="&#xdd;" horiz-adv-x="1320" d="M346 0v80h195v487l-412 707h-172v80h610v-80h-161l342 -586l319 586h-168v80h426v-80h-149l-385 -699v-495h192v-80h-637zM590 1479l-37 49l254 268q30 35 76 35q42 0 69 -28t27 -68q0 -56 -55 -84z" />
<glyph unicode="&#xde;" horiz-adv-x="1245" d="M637 297v84q29 -2 47 -2q119 0 176.5 72.5t57.5 230.5q0 152 -67 221.5t-230 69.5h-105v-893h203v-80h-647v80h194v1194h-194v80h647v-80h-203v-215h121q545 0 545 -371q0 -59 -14 -113t-48.5 -106.5t-87.5 -90.5t-137 -61.5t-190 -23.5z" />
<glyph unicode="&#xdf;" horiz-adv-x="1191" d="M567 59l68 80q41 -39 78 -57.5t90 -18.5q67 0 106 33t39 94q0 41 -19 78t-49.5 67.5t-67.5 61t-74 64.5t-67.5 70.5t-49.5 86t-19 105.5q0 54 17.5 100.5t45.5 80t61.5 63.5t67 57.5t61.5 55.5t45.5 64.5t17.5 78.5q0 87 -64 141.5t-178 54.5q-134 0 -186 -80.5 t-52 -257.5v-1081h-387v80h158v766h-158v80h158v147q0 93 25.5 168.5t78 133.5t141.5 90t208 32q173 0 264.5 -71t91.5 -199q0 -51 -16.5 -94.5t-41.5 -71.5t-54.5 -57t-54.5 -52.5t-41.5 -56.5t-16.5 -70q0 -43 19 -81.5t50 -69t68 -61t74 -64t68 -70t50 -87t19 -107.5 q0 -137 -90.5 -225.5t-225.5 -88.5q-71 0 -125 15t-79 31t-54 42z" />
<glyph unicode="&#xe0;" horiz-adv-x="1044" d="M66 215q0 82 49 144t131.5 97t177 51.5t199.5 16.5v183q0 95 -33 135.5t-121 40.5q-90 0 -128 -41t-38 -129q0 -45 6 -95q-102 -4 -153.5 36t-51.5 106q0 90 99.5 142t279.5 52q196 0 282.5 -67.5t86.5 -224.5v-504q0 -74 41 -74q57 0 88 121l80 -25q-7 -32 -22 -64 t-40.5 -64t-67.5 -52t-93 -20q-75 0 -124.5 37t-62.5 110h-4q-109 -156 -289 -156q-120 0 -206 64t-86 180zM303 215q0 -70 28 -107.5t81 -37.5q75 0 143 70t68 149v149q-164 0 -242 -53.5t-78 -169.5zM522 1075l-286 303q-29 32 -29 70q0 34 31.5 63t80.5 29q55 0 76 -49 l178 -383z" />
<glyph unicode="&#xe1;" horiz-adv-x="1044" d="M66 215q0 82 49 144t131.5 97t177 51.5t199.5 16.5v183q0 95 -33 135.5t-121 40.5q-90 0 -128 -41t-38 -129q0 -45 6 -95q-102 -4 -153.5 36t-51.5 106q0 90 99.5 142t279.5 52q196 0 282.5 -67.5t86.5 -224.5v-504q0 -74 41 -74q57 0 88 121l80 -25q-7 -32 -22 -64 t-40.5 -64t-67.5 -52t-93 -20q-75 0 -124.5 37t-62.5 110h-4q-109 -156 -289 -156q-120 0 -206 64t-86 180zM303 215q0 -70 28 -107.5t81 -37.5q75 0 143 70t68 149v149q-164 0 -242 -53.5t-78 -169.5zM446 1075l-51 33l178 383q24 49 76 49q49 0 82 -29.5t33 -62.5 q0 -38 -29 -70z" />
<glyph unicode="&#xe2;" horiz-adv-x="1044" d="M66 215q0 82 49 144t131.5 97t177 51.5t199.5 16.5v183q0 95 -33 135.5t-121 40.5q-90 0 -128 -41t-38 -129q0 -45 6 -95q-102 -4 -153.5 36t-51.5 106q0 90 99.5 142t279.5 52q196 0 282.5 -67.5t86.5 -224.5v-504q0 -74 41 -74q57 0 88 121l80 -25q-7 -32 -22 -64 t-40.5 -64t-67.5 -52t-93 -20q-75 0 -124.5 37t-62.5 110h-4q-109 -156 -289 -156q-120 0 -206 64t-86 180zM303 215q0 -70 28 -107.5t81 -37.5q75 0 143 70t68 149v149q-164 0 -242 -53.5t-78 -169.5zM274 1075l-61 33l229 432h93l227 -432l-64 -31l-211 260z" />
<glyph unicode="&#xe3;" horiz-adv-x="1044" d="M66 215q0 82 49 144t131.5 97t177 51.5t199.5 16.5v183q0 95 -33 135.5t-121 40.5q-90 0 -128 -41t-38 -129q0 -45 6 -95q-102 -4 -153.5 36t-51.5 106q0 90 99.5 142t279.5 52q196 0 282.5 -67.5t86.5 -224.5v-504q0 -74 41 -74q57 0 88 121l80 -25q-7 -32 -22 -64 t-40.5 -64t-67.5 -52t-93 -20q-75 0 -124.5 37t-62.5 110h-4q-109 -156 -289 -156q-120 0 -206 64t-86 180zM303 215q0 -70 28 -107.5t81 -37.5q75 0 143 70t68 149v149q-164 0 -242 -53.5t-78 -169.5zM160 1112q1 6 2 15.5t7 36.5t14.5 52t25 55.5t37 52.5t51.5 37t68 15 q43 0 128 -54t121 -54q27 0 50 11t36.5 27t22.5 32t13 27l3 11h70q0 -6 -1 -15.5t-6 -36.5t-13 -52t-24.5 -55.5t-38 -52.5t-56 -37t-76.5 -15q-35 0 -71 16.5t-61 36t-54.5 36t-53.5 16.5q-43 0 -73.5 -26.5t-40.5 -52.5l-9 -26h-71z" />
<glyph unicode="&#xe4;" horiz-adv-x="1044" d="M66 215q0 82 49 144t131.5 97t177 51.5t199.5 16.5v183q0 95 -33 135.5t-121 40.5q-90 0 -128 -41t-38 -129q0 -45 6 -95q-102 -4 -153.5 36t-51.5 106q0 90 99.5 142t279.5 52q196 0 282.5 -67.5t86.5 -224.5v-504q0 -74 41 -74q57 0 88 121l80 -25q-7 -32 -22 -64 t-40.5 -64t-67.5 -52t-93 -20q-75 0 -124.5 37t-62.5 110h-4q-109 -156 -289 -156q-120 0 -206 64t-86 180zM303 215q0 -70 28 -107.5t81 -37.5q75 0 143 70t68 149v149q-164 0 -242 -53.5t-78 -169.5zM694 1122q-52 0 -89.5 38t-37.5 89q0 53 37.5 90t89.5 37 q51 0 89 -37.5t38 -89.5q0 -51 -38 -89t-89 -38zM274 1122q-51 0 -89 38t-38 89q0 52 38 89.5t89 37.5q52 0 89.5 -37t37.5 -90q0 -51 -37.5 -89t-89.5 -38z" />
<glyph unicode="&#xe5;" horiz-adv-x="1044" d="M66 215q0 82 49 144t131.5 97t177 51.5t199.5 16.5v183q0 95 -33 135.5t-121 40.5q-90 0 -128 -41t-38 -129q0 -45 6 -95q-102 -4 -153.5 36t-51.5 106q0 90 99.5 142t279.5 52q196 0 282.5 -67.5t86.5 -224.5v-504q0 -74 41 -74q57 0 88 121l80 -25q-7 -32 -22 -64 t-40.5 -64t-67.5 -52t-93 -20q-75 0 -124.5 37t-62.5 110h-4q-109 -156 -289 -156q-120 0 -206 64t-86 180zM303 215q0 -70 28 -107.5t81 -37.5q75 0 143 70t68 149v149q-164 0 -242 -53.5t-78 -169.5zM485 1077q-100 0 -152 60t-52 137t51.5 133.5t152.5 56.5 q103 0 155 -56.5t52 -133.5t-52.5 -137t-154.5 -60zM485 1165q44 0 71.5 33.5t27.5 73.5t-26 72t-73 32q-48 0 -72 -31.5t-24 -72.5t25 -74t71 -33z" />
<glyph unicode="&#xe6;" horiz-adv-x="1523" d="M66 215q0 68 32.5 123t86.5 90t127.5 58.5t150.5 33.5t160 10v177q0 105 -33.5 140.5t-120.5 35.5q-81 0 -121.5 -35t-40.5 -139q0 -41 6 -91q-85 -5 -144.5 31t-59.5 109q0 91 99 143.5t275 52.5q217 0 291 -100q97 100 285 100q187 0 285 -95.5t98 -287.5v-114h-590 v-33q0 -195 51.5 -284t171.5 -89q105 0 180 61.5t99 161.5l88 -16q-16 -59 -44 -107.5t-74 -90.5t-116 -65.5t-159 -23.5q-125 0 -224.5 48t-152.5 149q-110 -197 -316 -197q-119 0 -204.5 64t-85.5 180zM854 543h363v78q0 262 -168 262q-187 0 -195 -340zM301 213 q0 -74 30 -108.5t81 -34.5q75 0 143 68.5t68 144.5v159q-159 0 -240.5 -54.5t-81.5 -174.5z" />
<glyph unicode="&#xe7;" horiz-adv-x="944" d="M403 -190l46 165q-172 18 -270.5 137.5t-98.5 348.5q0 252 118 372.5t326 120.5q96 0 175.5 -23t129.5 -72t50 -116q0 -72 -54 -116t-153 -41q8 55 8 106q0 103 -39 147t-117 44q-117 0 -162 -96t-45 -320q0 -221 51 -316.5t169 -95.5q98 0 163.5 57.5t85.5 161.5l91 -14 q-24 -120 -106.5 -200t-229.5 -87l-23 -92q199 -27 199 -180q0 -89 -64.5 -143t-163.5 -54q-68 0 -118.5 27.5t-75.5 69.5l63 55q46 -68 117 -68q44 0 66 26.5t22 72.5q0 61 -37.5 89.5t-122.5 33.5z" />
<glyph unicode="&#xe8;" horiz-adv-x="991" d="M80 461q0 131 32 227t91.5 153.5t138.5 85t180 27.5q387 0 387 -383v-106h-592v-33q0 -210 54.5 -293.5t173.5 -83.5q103 0 176.5 60t97.5 159l88 -16q-30 -121 -126 -204t-255 -83q-213 0 -329.5 119.5t-116.5 370.5zM319 551h365v65q0 133 -37 200t-129 67 q-99 0 -146.5 -84t-52.5 -248zM553 1075l-287 303q-28 31 -28 70q0 34 31.5 63t80.5 29q55 0 76 -49l178 -383z" />
<glyph unicode="&#xe9;" horiz-adv-x="991" d="M475 1075l-51 33l178 383q24 49 76 49q49 0 82 -29.5t33 -62.5q0 -38 -29 -70zM80 461q0 131 32 227t91.5 153.5t138.5 85t180 27.5q387 0 387 -383v-106h-592v-33q0 -210 54.5 -293.5t173.5 -83.5q103 0 176.5 60t97.5 159l88 -16q-30 -121 -126 -204t-255 -83 q-213 0 -329.5 119.5t-116.5 370.5zM319 551h365v65q0 133 -37 200t-129 67q-99 0 -146.5 -84t-52.5 -248z" />
<glyph unicode="&#xea;" horiz-adv-x="991" d="M303 1075l-61 33l229 432h92l228 -432l-64 -31l-211 260zM80 461q0 131 32 227t91.5 153.5t138.5 85t180 27.5q387 0 387 -383v-106h-592v-33q0 -210 54.5 -293.5t173.5 -83.5q103 0 176.5 60t97.5 159l88 -16q-30 -121 -126 -204t-255 -83q-213 0 -329.5 119.5 t-116.5 370.5zM319 551h365v65q0 133 -37 200t-129 67q-99 0 -146.5 -84t-52.5 -248z" />
<glyph unicode="&#xeb;" horiz-adv-x="991" d="M725 1122q-52 0 -89.5 38t-37.5 89q0 53 37 90t90 37q51 0 89 -37.5t38 -89.5q0 -51 -38 -89t-89 -38zM305 1122q-51 0 -89 38t-38 89q0 52 38 89.5t89 37.5q53 0 90 -37t37 -90q0 -51 -37.5 -89t-89.5 -38zM80 461q0 131 32 227t91.5 153.5t138.5 85t180 27.5 q387 0 387 -383v-106h-592v-33q0 -210 54.5 -293.5t173.5 -83.5q103 0 176.5 60t97.5 159l88 -16q-30 -121 -126 -204t-255 -83q-213 0 -329.5 119.5t-116.5 370.5zM319 551h365v65q0 133 -37 200t-129 67q-99 0 -146.5 -84t-52.5 -248z" />
<glyph unicode="&#xec;" horiz-adv-x="624" d="M55 0v80h158v766h-176v80h403v-846h158v-80h-543zM362 1075l-286 303q-29 32 -29 70q0 34 32 63t81 29q55 0 76 -49l178 -383z" />
<glyph unicode="&#xed;" horiz-adv-x="624" d="M287 1075l-51 33l178 383q24 49 75 49q49 0 82 -29.5t33 -62.5q0 -38 -29 -70zM55 0v80h158v766h-176v80h403v-846h158v-80h-543z" />
<glyph unicode="&#xee;" horiz-adv-x="624" d="M115 1075l-62 33l230 432h92l227 -432l-63 -31l-211 260zM55 0v80h158v766h-176v80h403v-846h158v-80h-543z" />
<glyph unicode="&#xef;" horiz-adv-x="624" d="M535 1122q-52 0 -89.5 38t-37.5 89q0 53 37 90t90 37q51 0 89 -37.5t38 -89.5q0 -51 -38 -89t-89 -38zM115 1122q-51 0 -89 38t-38 89q0 52 38 89.5t89 37.5q53 0 90 -37t37 -90q0 -51 -37.5 -89t-89.5 -38zM55 0v80h158v766h-176v80h403v-846h158v-80h-543z" />
<glyph unicode="&#xf0;" horiz-adv-x="1097" d="M258 991l-47 76l278 170q-109 106 -286 178l28 74q233 -75 373 -182l244 147l45 -76l-215 -131q149 -134 233 -323.5t84 -415.5q0 -262 -115 -399.5t-341 -137.5q-224 0 -341.5 128.5t-117.5 353.5q0 229 118 351t318 122q111 0 193 -52l4 3q-59 168 -162 292zM543 45 q120 0 169.5 101t49.5 303t-50 297.5t-171 95.5q-122 0 -172 -95t-50 -294q0 -205 51 -306.5t173 -101.5z" />
<glyph unicode="&#xf1;" horiz-adv-x="1236" d="M55 0v80h158v766h-176v80h389v-230h4q6 18 11.5 32t20 42.5t30.5 50.5t43.5 48.5t59 43.5t77 29t96.5 12q297 0 297 -290v-584h156v-80h-519v80h136v586q0 101 -28.5 142.5t-96.5 41.5q-69 0 -124 -50t-86 -126t-47 -155.5t-16 -149.5v-289h133v-80h-518zM301 1112 q1 6 2 15.5t7 36.5t14.5 52t25 55.5t37 52.5t51.5 37t68 15q43 0 128.5 -54t121.5 -54q27 0 50 11t36.5 27t22.5 32t13 27l3 11h69q0 -6 -1 -15.5t-6 -36.5t-13 -52t-24.5 -55.5t-38 -52.5t-56 -37t-76.5 -15q-35 0 -71 16.5t-60.5 36t-54 36t-53.5 16.5q-43 0 -73.5 -26.5 t-40.5 -52.5l-9 -26h-72z" />
<glyph unicode="&#xf2;" horiz-adv-x="1081" d="M80 457q0 241 115 369t348 128q458 0 458 -485q0 -243 -120.5 -370.5t-337.5 -127.5q-228 0 -345.5 127t-117.5 359zM543 43q121 0 170 104.5t49 321.5q0 212 -49 313t-170 101t-172.5 -104.5t-51.5 -321.5q0 -209 51 -311.5t173 -102.5zM573 1075l-286 303 q-29 32 -29 70q0 34 32 63t81 29q54 0 75 -49l179 -383z" />
<glyph unicode="&#xf3;" horiz-adv-x="1081" d="M498 1075l-52 33l179 383q24 49 75 49q49 0 82 -29.5t33 -62.5q0 -38 -29 -70zM80 457q0 241 115 369t348 128q458 0 458 -485q0 -243 -120.5 -370.5t-337.5 -127.5q-228 0 -345.5 127t-117.5 359zM543 43q121 0 170 104.5t49 321.5q0 212 -49 313t-170 101 t-172.5 -104.5t-51.5 -321.5q0 -209 51 -311.5t173 -102.5z" />
<glyph unicode="&#xf4;" horiz-adv-x="1081" d="M326 1075l-62 33l230 432h92l227 -432l-63 -31l-211 260zM80 457q0 241 115 369t348 128q458 0 458 -485q0 -243 -120.5 -370.5t-337.5 -127.5q-228 0 -345.5 127t-117.5 359zM543 43q121 0 170 104.5t49 321.5q0 212 -49 313t-170 101t-172.5 -104.5t-51.5 -321.5 q0 -209 51 -311.5t173 -102.5z" />
<glyph unicode="&#xf5;" horiz-adv-x="1081" d="M80 457q0 241 115 369t348 128q458 0 458 -485q0 -243 -120.5 -370.5t-337.5 -127.5q-228 0 -345.5 127t-117.5 359zM543 43q121 0 170 104.5t49 321.5q0 212 -49 313t-170 101t-172.5 -104.5t-51.5 -321.5q0 -209 51 -311.5t173 -102.5zM209 1112q1 6 2 15.5t7 36.5 t14.5 52t25 55.5t37 52.5t51.5 37t68 15q43 0 128.5 -54t121.5 -54q27 0 50 11t36 27t22 32t12 27l4 11h70q0 -6 -1 -15.5t-6 -36.5t-13 -52t-24.5 -55.5t-38 -52.5t-56 -37t-76.5 -15q-35 0 -71 16.5t-61 36t-54.5 36t-53.5 16.5q-27 0 -49.5 -11t-35 -26.5t-21.5 -30.5 t-13 -26l-3 -11h-72z" />
<glyph unicode="&#xf6;" horiz-adv-x="1081" d="M748 1122q-52 0 -89.5 38t-37.5 89q0 53 37.5 90t89.5 37q51 0 88.5 -37.5t37.5 -89.5q0 -51 -37.5 -89t-88.5 -38zM328 1122q-51 0 -89 38t-38 89q0 52 38 89.5t89 37.5q52 0 89.5 -37t37.5 -90q0 -51 -37.5 -89t-89.5 -38zM80 457q0 241 115 369t348 128 q458 0 458 -485q0 -243 -120.5 -370.5t-337.5 -127.5q-228 0 -345.5 127t-117.5 359zM543 43q121 0 170 104.5t49 321.5q0 212 -49 313t-170 101t-172.5 -104.5t-51.5 -321.5q0 -209 51 -311.5t173 -102.5z" />
<glyph unicode="&#xf7;" d="M553 737q-57 0 -96 40t-39 97q0 56 39 96t96 40t96 -40t39 -96q0 -57 -39 -97t-96 -40zM94 422v147h918v-147h-918zM418 111q0 57 39 97t96 40t96 -40t39 -97q0 -56 -39 -96t-96 -40t-96 40t-39 96z" />
<glyph unicode="&#xf8;" horiz-adv-x="1081" d="M82 457q0 241 115 369t348 128q140 0 233 -43l105 156l75 -49l-102 -154q148 -118 148 -395q0 -243 -121 -370.5t-338 -127.5q-145 0 -250 54l-100 -150l-78 49l102 154q-137 122 -137 379zM545 45q122 0 171.5 104t49.5 320q0 129 -23 229l-370 -555q52 -98 172 -98z M322 457q0 -126 14 -203l369 547q-54 82 -160 82q-121 0 -172 -104.5t-51 -321.5z" />
<glyph unicode="&#xf9;" horiz-adv-x="1208" d="M180 262v584h-174v80h404v-676q0 -93 26 -133.5t88 -40.5q55 0 102 33t77 85.5t51.5 117.5t31 127.5t9.5 117.5v289h-154v80h383v-846h156v-80h-369v229h-4q-8 -22 -12 -32.5t-20 -42t-31 -51t-43 -47.5t-59 -44.5t-76.5 -28.5t-96.5 -12q-140 0 -214.5 71.5t-74.5 219.5 zM596 1075l-287 303q-28 31 -28 70q0 34 31.5 63t80.5 29q55 0 76 -49l178 -383z" />
<glyph unicode="&#xfa;" horiz-adv-x="1208" d="M518 1075l-51 33l178 383q24 49 76 49q49 0 82 -29.5t33 -62.5q0 -38 -29 -70zM180 262v584h-174v80h404v-676q0 -93 26 -133.5t88 -40.5q55 0 102 33t77 85.5t51.5 117.5t31 127.5t9.5 117.5v289h-154v80h383v-846h156v-80h-369v229h-4q-8 -22 -12 -32.5t-20 -42 t-31 -51t-43 -47.5t-59 -44.5t-76.5 -28.5t-96.5 -12q-140 0 -214.5 71.5t-74.5 219.5z" />
<glyph unicode="&#xfb;" horiz-adv-x="1208" d="M346 1075l-61 33l229 432h92l228 -432l-64 -31l-211 260zM180 262v584h-174v80h404v-676q0 -93 26 -133.5t88 -40.5q55 0 102 33t77 85.5t51.5 117.5t31 127.5t9.5 117.5v289h-154v80h383v-846h156v-80h-369v229h-4q-8 -22 -12 -32.5t-20 -42t-31 -51t-43 -47.5 t-59 -44.5t-76.5 -28.5t-96.5 -12q-140 0 -214.5 71.5t-74.5 219.5z" />
<glyph unicode="&#xfc;" horiz-adv-x="1208" d="M768 1122q-52 0 -89.5 38t-37.5 89q0 53 37.5 90t89.5 37q51 0 89 -37.5t38 -89.5q0 -51 -38 -89t-89 -38zM348 1122q-51 0 -89 38t-38 89q0 52 38 89.5t89 37.5q52 0 89.5 -37t37.5 -90q0 -51 -37.5 -89t-89.5 -38zM180 262v584h-174v80h404v-676q0 -93 26 -133.5 t88 -40.5q55 0 102 33t77 85.5t51.5 117.5t31 127.5t9.5 117.5v289h-154v80h383v-846h156v-80h-369v229h-4q-8 -22 -12 -32.5t-20 -42t-31 -51t-43 -47.5t-59 -44.5t-76.5 -28.5t-96.5 -12q-140 0 -214.5 71.5t-74.5 219.5z" />
<glyph unicode="&#xfd;" horiz-adv-x="1095" d="M35 -319q0 62 48 103t159 38q-8 -39 -10.5 -74.5t2.5 -75.5t30.5 -64t69.5 -24q69 0 114.5 62.5t61.5 165.5l20 149l-399 885h-121v80h518v-80h-153l256 -582l231 582h-145v80h368v-80h-124l-326 -805l-31 -223q-7 -49 -16.5 -86.5t-31 -83t-52.5 -75t-83 -49.5t-120 -20 q-117 0 -191.5 48t-74.5 129zM551 1075l-51 33l178 383q24 49 76 49q49 0 81.5 -29t32.5 -63q0 -39 -28 -70z" />
<glyph unicode="&#xfe;" horiz-adv-x="1130" d="M-14 -387h157v1778h-176v79h406v-514q0 -37 -2 -77t-4 -61l-2 -21h4q87 157 301 157q193 0 287 -123t94 -339q0 -132 -34.5 -234.5t-94 -163.5t-133 -92t-158.5 -31q-175 0 -262 135h-4q8 -75 8 -159v-334h155v-80h-542v80zM365 457q0 -172 59 -280.5t174 -108.5 q106 0 158.5 98t52.5 321q0 143 -24 226.5t-64 113t-103 29.5q-85 0 -144 -58t-84 -145t-25 -196z" />
<glyph unicode="&#xff;" horiz-adv-x="1095" d="M35 -319q0 62 48 103t159 38q-8 -39 -10.5 -74.5t2.5 -75.5t30.5 -64t69.5 -24q69 0 114.5 62.5t61.5 165.5l20 149l-399 885h-121v80h518v-80h-153l256 -582l231 582h-145v80h368v-80h-124l-326 -805l-31 -223q-7 -49 -16.5 -86.5t-31 -83t-52.5 -75t-83 -49.5t-120 -20 q-117 0 -191.5 48t-74.5 129zM801 1122q-52 0 -89.5 38t-37.5 89q0 53 37 90t90 37q51 0 89 -37.5t38 -89.5q0 -51 -38 -89t-89 -38zM381 1122q-51 0 -89 38t-38 89q0 52 38 89.5t89 37.5q53 0 90 -37t37 -90q0 -51 -37.5 -89t-89.5 -38z" />
<glyph unicode="&#x152;" horiz-adv-x="1925" d="M100 698q0 150 35.5 271.5t109.5 215.5t199.5 145.5t294.5 51.5q120 0 226 -28h858l-82 -418h-70l-14 248q-3 55 -14.5 69.5t-47.5 14.5h-440v-553h289v176h96v-455h-96v191h-289v-541h393q29 0 46.5 5t37 23.5t36 57.5t36 102.5t43.5 163.5h74q-17 -221 -17 -332v-106 h-852q-98 -29 -213 -29q-141 0 -250 34t-182 95t-119.5 152.5t-67 200.5t-20.5 245zM741 51q99 0 164 29v1198q-67 27 -162 27q-196 0 -285 -147t-89 -482q0 -337 88 -481t284 -144z" />
<glyph unicode="&#x153;" horiz-adv-x="1665" d="M80 459q0 239 114.5 367t342.5 128q227 0 337 -135q112 135 326 135q187 0 286 -95.5t99 -287.5v-114h-592v-33q0 -194 53 -283.5t173 -89.5q104 0 178 61.5t98 161.5l88 -16q-15 -56 -44 -105t-74 -91t-113 -66.5t-150 -24.5q-224 0 -336 138q-120 -138 -329 -138 q-224 0 -340.5 127.5t-116.5 360.5zM995 543h363v104q0 106 -40.5 171t-127.5 65q-187 0 -195 -340zM541 45q121 0 171 103.5t50 318.5q0 213 -49.5 314.5t-169.5 101.5q-122 0 -173 -103.5t-51 -320.5q0 -211 50 -312.5t172 -101.5z" />
<glyph unicode="&#x178;" horiz-adv-x="1320" d="M346 0v80h195v487l-412 707h-172v80h610v-80h-161l342 -586l319 586h-168v80h426v-80h-149l-385 -699v-495h192v-80h-637zM924 1530q-52 0 -89.5 37t-37.5 90t37.5 90t89.5 37q51 0 89 -37.5t38 -89.5t-38 -89.5t-89 -37.5zM463 1530q-51 0 -89 37.5t-38 89.5t38 89.5 t89 37.5q53 0 90 -37t37 -90t-37 -90t-90 -37z" />
<glyph unicode="&#x2c6;" horiz-adv-x="1024" d="M317 1075l-61 33l229 432h93l227 -432l-64 -31l-211 260z" />
<glyph unicode="&#x2dc;" horiz-adv-x="1024" d="M203 1112q1 6 2 15.5t7 36.5t14.5 52t25 55.5t37 52.5t51.5 37t68 15q43 0 128 -54t121 -54q27 0 50 11t36.5 27t22.5 32t12 27l4 11h70q0 -6 -1 -15.5t-6 -36.5t-13 -52t-24.5 -55.5t-38 -52.5t-56 -37t-76.5 -15q-35 0 -71 16.5t-61 36t-54.5 36t-53.5 16.5 q-43 0 -73.5 -26.5t-39.5 -52.5l-10 -26h-71z" />
<glyph unicode="&#x2000;" horiz-adv-x="921" />
<glyph unicode="&#x2001;" horiz-adv-x="1843" />
<glyph unicode="&#x2002;" horiz-adv-x="921" />
<glyph unicode="&#x2003;" horiz-adv-x="1843" />
<glyph unicode="&#x2004;" horiz-adv-x="614" />
<glyph unicode="&#x2005;" horiz-adv-x="460" />
<glyph unicode="&#x2006;" horiz-adv-x="307" />
<glyph unicode="&#x2007;" horiz-adv-x="307" />
<glyph unicode="&#x2008;" horiz-adv-x="230" />
<glyph unicode="&#x2009;" horiz-adv-x="368" />
<glyph unicode="&#x200a;" horiz-adv-x="102" />
<glyph unicode="&#x2010;" horiz-adv-x="765" d="M125 399v179h516v-179h-516z" />
<glyph unicode="&#x2011;" horiz-adv-x="765" d="M125 399v179h516v-179h-516z" />
<glyph unicode="&#x2012;" horiz-adv-x="765" d="M125 399v179h516v-179h-516z" />
<glyph unicode="&#x2013;" horiz-adv-x="1298" d="M137 408v139h1024v-139h-1024z" />
<glyph unicode="&#x2014;" horiz-adv-x="2322" d="M137 408v139h2048v-139h-2048z" />
<glyph unicode="&#x2018;" horiz-adv-x="509" d="M256 881q-76 0 -122 58t-46 144q0 128 71.5 226.5t207.5 183.5l45 -63q-178 -111 -181 -230q0 -61 48 -101t141 -55q-11 -87 -58 -125t-106 -38z" />
<glyph unicode="&#x2019;" horiz-adv-x="512" d="M154 877l-45 65q180 112 180 227q0 60 -49.5 101.5t-141.5 56.5q10 73 51.5 118.5t114.5 45.5q76 0 122 -59t46 -144q0 -129 -71 -227.5t-207 -183.5z" />
<glyph unicode="&#x201a;" horiz-adv-x="532" d="M96 115q10 73 51 118.5t113 45.5q76 0 122 -59t46 -144q0 -129 -71 -227t-207 -183l-44 64q179 111 179 229q0 59 -48.5 100t-140.5 56z" />
<glyph unicode="&#x201c;" horiz-adv-x="903" d="M647 879q-76 0 -122 58.5t-46 143.5q0 128 71 226t208 186l45 -66q-177 -107 -180 -229q0 -60 48 -100.5t140 -55.5q-11 -86 -58.5 -124.5t-105.5 -38.5zM256 879q-76 0 -122 58.5t-46 143.5q0 128 71 226t208 186l45 -66q-178 -108 -181 -229q0 -59 48.5 -100t140.5 -56 q-11 -86 -58.5 -124.5t-105.5 -38.5z" />
<glyph unicode="&#x201d;" horiz-adv-x="903" d="M545 879l-45 63q178 111 178 229q2 60 -47 100.5t-142 55.5q11 86 59 125t105 39q76 0 122 -58.5t46 -144.5q0 -129 -70 -227t-206 -182zM154 879l-45 63q178 111 178 229q2 60 -47 100.5t-142 55.5q11 86 59 125t105 39q76 0 122 -58.5t46 -144.5q0 -129 -70 -227 t-206 -182z" />
<glyph unicode="&#x201e;" horiz-adv-x="923" d="M487 115q10 73 51 118.5t113 45.5q76 0 122 -59t46 -144q0 -129 -71 -227t-207 -183l-43 64q178 111 178 229q0 59 -48.5 100t-140.5 56zM96 115q10 73 51 118.5t113 45.5q76 0 122 -59t46 -144q0 -129 -71 -227t-207 -183l-44 64q179 111 179 229q0 59 -48.5 100 t-140.5 56z" />
<glyph unicode="&#x2022;" horiz-adv-x="950" d="M475 176q-129 0 -219 90t-90 219t90 219.5t219 90.5t219 -90.5t90 -219.5t-90 -219t-219 -90z" />
<glyph unicode="&#x2026;" horiz-adv-x="1482" d="M1079 127q0 62 44.5 107t107.5 45q61 0 106 -45t45 -107t-45 -107t-106 -45q-63 0 -107.5 45t-44.5 107zM590 127q0 62 44 107t107 45q61 0 106.5 -45.5t45.5 -106.5t-45.5 -106.5t-106.5 -45.5q-63 0 -107 45t-44 107zM100 127q0 62 44.5 107t107.5 45q61 0 106 -45 t45 -107t-45 -107t-106 -45q-63 0 -107.5 45t-44.5 107z" />
<glyph unicode="&#x202f;" horiz-adv-x="368" />
<glyph unicode="&#x2039;" horiz-adv-x="557" d="M412 4q-136 102 -232 225t-96 236q0 58 28.5 123t77.5 125.5t104.5 113t117.5 99.5l61 -68q-76 -72 -106.5 -118.5t-40 -101.5t-9.5 -173t9.5 -173.5t40 -102t106.5 -117.5z" />
<glyph unicode="&#x203a;" horiz-adv-x="557" d="M84 72q76 71 106.5 117.5t40 102t9.5 173.5t-9.5 173t-40 101.5t-106.5 118.5l61 68q62 -47 117.5 -99.5t104.5 -113t77.5 -125.5t28.5 -123q0 -113 -96 -236t-232 -225z" />
<glyph unicode="&#x205f;" horiz-adv-x="460" />
<glyph unicode="&#x20ac;" d="M27 385v86h145q-4 31 -4 96q0 39 4 109h-145v86h159q38 189 158 294t318 105q182 0 274 -102l35 80h84q-31 -150 -31 -207v-135h-94v55q0 40 -15 79.5t-44 73t-77 54t-108 20.5q-117 0 -181.5 -77t-86.5 -240h325v-86h-333q-2 -35 -2 -111q0 -65 2 -94h333v-86h-327 q20 -175 84.5 -253.5t181.5 -78.5q104 0 177.5 56.5t94.5 166.5l86 -18q-61 -287 -381 -287q-199 0 -319 109t-158 305h-155z" />
<glyph unicode="&#x2122;" horiz-adv-x="1904" d="M844 723v59h92v512h-96v60h286l162 -416l174 416h310v-60h-103v-512h103v-59h-359v59h94v467l-219 -526h-71l-199 506v-447h82v-59h-256zM150 1114v240h632v-240h-47q-33 122 -47 151t-43 29h-98v-512h104v-59h-368v59h102v512h-96q-30 0 -44.5 -29t-47.5 -151h-47z" />
</font>
</defs>
</svg>
